<svg xmlns="http://www.w3.org/2000/svg" enable-background="new 0 0 156 156" viewBox="0 0 156 156"><path d="M111.9453354,46.8909149c-0.0220947,0.3278885,0.4766693,0.3685303,0.4990234,0.0332031
		c0.0693359-1.0361328-0.324234-2.0898438-1.0537109-2.8203125c-0.2339783-0.2339745-0.5873413,0.1196899-0.3535156,0.3535156
		C111.6655502,45.087204,112.005394,45.9963837,111.9453354,46.8909149z"/><path d="M85.3242416,51.243454c-1.0316162-0.1432381-1.7954788-0.0356255-2.7080078-0.4257812
		c-1.1176758-0.4726562-1.1342773-1.3164062-1.1567383-2.4833984c-0.0037231-0.1879921-0.3594971-9.5058556-0.402832-10.3896484
		c-0.0152512-0.3284416-0.5154266-0.3073044-0.4990234,0.0253906c0.042244,0.8637543,0.3986435,10.2159958,0.4018555,10.3740234
		c0.0224609,1.1474609,0.0454102,2.3339844,1.4609375,2.9335938c1.0141983,0.4336357,1.8181229,0.3180618,2.8344727,0.4619141
		C85.6032181,51.7685738,85.6360397,51.2879944,85.3242416,51.243454z"/><path d="M76.0600815,41.1409149c-1.039856,0.1917725-1.6223145,1.7624512-1.3004761,3.5073242
		c0.3218384,1.744751,1.4263306,3.0042725,2.4661865,2.8125c1.038147-0.1914062,1.6206055-1.762207,1.2987671-3.5070801
		C78.2027206,42.2089081,77.0982285,40.9493866,76.0600815,41.1409149z"/><path d="M77.2775497,38.5684052c-0.0378418-0.2507324-0.2625122-0.4382324-0.5027466-0.5195312
		c-0.7425461-0.251194-1.353241,0.3754539-1.9189453,0.8103027c-2.1742325,1.6671906-1.0026627,2.5930939,0.9918823,1.3560791
		C76.3683624,39.892086,77.3676758,39.165493,77.2775497,38.5684052z"/><path d="M86.6067734,45.0272675c1.039856-0.1917725,1.6223145-1.7625732,1.3004761-3.5073242
		s-1.4263306-3.0042725-2.4661865-2.8126221c-1.0380859,0.1916504-1.6205444,1.762207-1.2987061,3.5070801
		S85.5686874,45.2187958,86.6067734,45.0272675z"/><path d="M89.5277939,38.2288055c0.6248779-0.1049805,0.9718018-0.6407471,0.3366089-1.0859375
		c-0.3955688-0.2773438-0.8533936-0.4580078-1.3098145-0.5939941c-0.694725-0.2062073-1.4746704-0.5743256-2.0817871-0.0722656
		C85.2129669,37.5187912,88.071106,38.4737015,89.5277939,38.2288055z"/><path d="M15.4145708,119.3879852c1.7991953-2.0166016,3.8434458-3.8891602,6.0950937-5.5930176
		c0.6158352,0.0988388,0.5759583,0.0334778,4.1399536,0.0543213c1.5724926,0.633934,1.0679817,0.1151962,27.9562969,0.2994385
		c-0.2859688,0.2356415-0.1878738,0.8956833,0.7541504,1.0415039c0.5090332,0.0788574,1.0229492,0.1164551,1.5377808,0.1335449
		c0.2795372,0.6523209,0.3497505,1.2354813,0.0041504,2.0588379c-0.5579224,0.0812988-1.2114258,0.4210205-1.5269775,0.5847168
		c-0.3756104,0.1948242-1.1408081,0.9133301-1.2504272,1.4772949c-1.3613548,1.0125351-1.2148743,2.9973679,1.7411499,2.9013672
		l9.1168823-0.3354492c0.0326042,0.3767853,0.276516,0.5720596,0.6282997,0.7189941
		c1.0296173,0.4308472,2.603447,0.4721298,3.3115234-0.0666504c0.0222168,0.0297852,0.0597534,0.0563965,0.071228,0.0883789
		c0.0859375,0.2402344-0.2114258,0.6416016-0.8154297,1.1005859c-0.630188,0.4781113-1.5230713,0.5992661-2.3569336,0.7490234
		c-2.2163124,0.4169922-4.3706093,1.3125-6.2290077,2.5908203c-2.844883,1.9532013-2.980526,4.3143311-1.4755859,6.4365234
		c0.8862305,1.2509766,2.2094727,2.0703125,3.2631836,2.6455078c2.9262695,1.5966797,6.2309608,2.5791016,9.5561562,2.8427734
		c4.6378174,0.3758545,5.7669144-1.5975342,7.1256714-5.8093262c0.6091309,0.2556152,1.3852539,0.140625,1.954895-0.2344971
		c0.7389526-0.4866943,1.1958008-1.2957764,1.5661011-2.0994873c0.5919113-1.2847443,0.8996964-2.8488922-0.2973022-3.6132812
		c1.4421997-1.6729584,4.0404739-3.9240723,6.2585449-3.8391113c2.2990646,0.0569153,4.0415649,2.1475525,6.230957,3.1611328
		c1.8532104,0.8596191,4.1672974,0.9384766,6.4292603,0.255249c2.9210892,2.6185303,5.0979462,2.9429779,7.9413452,2.2047119
		c4.2788086-1.1152344,8.0175781-4.1396484,10.0014648-8.0898438c1.96595-3.9152908,1.9092712-8.0634003,1.8503418-12.3535156
		c8.6869507,3.7382812,16.1199265,8.7485352,22.7009201,15.3203125c0.0488281,0.0488281,0.112793,0.0732422,0.1767578,0.0732422
		s0.1279297-0.0244141,0.1767578-0.0732422c0.0976562-0.0976562,0.0976562-0.2558594,0-0.3535156
		c-6.6782837-6.6685791-14.2240524-11.7438965-23.0578537-15.517334
		c-0.0606613-5.1381378-0.1924591-10.6623535-1.1738281-15.0749512c3.0144272-0.3692245,4.0593338-1.5706711,5.8197632-4.4244385
		c0.5639648-0.9202881,1.1477051-1.8699951,1.3455811-2.9385986c0.197937-1.0686035-0.0593262-2.2954102-0.9102173-2.958252
		c-1.1612167-0.9020996-3.4287109-0.9032593-2.9980469-2.800293c0.2672119-1.1574707,1.1873779-2.0184326,1.9393311-2.9285889
		c0.7420654-0.9202881,1.3654175-2.1668701,0.9102783-3.255249c-0.8311157-2.0085449-4.4326172-1.7216797-5.0263672-3.8093262
		c-0.1780396-0.6430664,0-1.315918,0.0891113-1.9689941c0.425415-3.0473633-1.1575928-6.0255127-1.8601074-8.8950195
		c-0.6550293-2.6768799-1.9912109-5.2260742-3.1472778-7.7526855c2.0620651-5.7616615-0.2925568-13.1711655-5.9213867-14.8076172
		c-0.2814102-1.3029671-1.051506-3.313179-2.2692261-5.2497578c-1.8417282-4.8043652-3.4140015-6.9035931-7.4511719-10.5661621
		c-5.0106735-4.5612659-12.778183-4.6530094-18.4794922-2.5732422c-8.2167511,3.0166245-9.4822769,11.0958595-9.5410156,11.2070312
		c-0.0039062,0.0117188-0.3515625,1.2207031-0.2207031,1.5322266c0.0081787,0.0195312,0.0220947,0.0349121,0.0345459,0.0515137
		c-2.7367935,1.900877-4.1012878,5.0439587-4.7216797,8.2912617c-1.4208374,7.5769691,0.2401733,10.457901,1.2070923,14.4255371
		c0.8508911,3.4829102,1.9294434,6.9162598,3.2354736,10.260498c0.5486298,1.4087601,1.1434784,2.7229919,2.4636841,3.4432373
		c1.1377563,0.6826172,2.5428467,1.0784912,3.057251,2.2757568c0.3859253,0.8903809,0.1088867,1.9094238,0.0099487,2.8791504
		c-0.098938,0.9696045,0.1187134,2.1569824,1.0092163,2.532959c0.9292374,0.4007797,2.0141068-0.2945175,2.6118164,1.845459
		c-1.4845886,0.2102432-3.0656052,0.5168839-4.4877319,0.9946289c-0.5045166-1.8706055-0.9969482-3.4395752-1.4533081-4.6132812
		c-0.7083817-1.818573-2.0046158-3.2060547-3.9487305-3.2060547c-15.7033653-0.8775406-32.1390419-0.7199173-47.1845703,0.8115234
		c-0.5784302,0.0097656-1.1397705,0.1455078-1.6497803,0.3881836c-1.5103149,0.3659668-2.9004517,0.9831543-4.0251465,2.0480957
		c-4.1258554,3.8883057-1.7908335,10.2404785-1.0784311,15.1085205c1.0784311,7.4107666,2.1470346,14.8216553,3.2255259,22.2324219
		c0.2067261,1.4165039,1.1992798,2.5460205,2.4980469,2.9881592c-2.1538086,1.6594238-4.1239624,3.4667969-5.8608408,5.4143066
		C14.8193445,119.3041306,15.1991501,119.631134,15.4145708,119.3879852z M86.5566635,123.0207977
		c-2.4598694-0.077179-5.1779327,2.2780304-6.7456055,4.1313477c-0.4483643-0.135498-0.944458-0.1359863-1.3828125,0.0356445
		c-1.7677307,0.6924057-3.3384247,4.414856-1.8001099,5.8395996c-1.3282089,4.1069336-2.2068863,5.9404907-6.6525269,5.5910645
		c-3.2558594-0.2578125-6.4912148-1.2207031-9.3564491-2.7841797c-4.1023483-2.2372894-5.5507469-5.61409-1.7436523-8.2304688
		c4.4372597-3.0519714,7.0187035-2.1508636,8.6049843-3.3535156c0.7456894-0.5671082,1.434082-1.3470993,0.7554932-1.9943848
		c0.3419495-0.9751511-1.6312103-1.7562332-2.600708-1.6374512c-0.442627,0.0541992-1.190918,0.4154053-1.5150757,0.8864746
		l-9.2730141,0.3410645c-2.1887932,0.093071-2.4771614-1.0759201-1.5458984-1.8962402
		c0.2778664,0.2138214,0.6140099,0.1983261,0.956543,0.1264648c0.8673096-0.182373,1.6697998-0.659668,2.2440186-1.3347168
		c0.2020264-0.2375488,0.3851929-0.5380859,0.321228-0.8432617c-0.057312-0.2731934-0.2020264-0.423584-0.3943481-0.4931641
		c0.2633095-0.7421799,0.2828903-1.3429031,0.0101318-2.0797119c0.6419868-0.005806,1.476963,0.024231,1.9588623-0.4957275
		c0.2659531-0.2868118,0.1128387-0.5425568-0.2454224-0.6809082h17.52985c2.4786148,0,4.014801-2.1941299,3.9208984-4.6513672
		c-0.0565186-1.5473633-0.1975708-3.4233398-0.4051514-5.4350586c0.6448975,0.0993652,1.3064575,0.1113281,1.9681396,0.0102539
		c2.5537109-0.4296875,3.293457,0.1181641,4.9165039,1.9394531c0.7715454,0.8625488,1.5962524,1.8068848,2.5755615,2.9489746
		c-1.8258438,2.2305756-2.6533203,3.2483826-0.2357178,6.2727051c4.1135025,5.1471634,9.6327591,10.6273575,10.3579102,11.3134766
		C92.0857086,128.3740082,90.6736221,123.1207504,86.5566635,123.0207977z M77.4622421,100.8937225
		c0.3947067-0.1410141,2.2619858-1.2446213,5.138855-1.1278076c0.3536453-0.0342255,0.3296127-0.4868927,0.0205078-0.5
		c-1.8132935-0.0725098-3.6223145,0.3181152-5.2484741,1.1256104c-0.1797104-0.0275345-1.485611,0.1464691-2.2178345-0.5621338
		c-0.6625977-0.6533203-0.5805664-1.7744141-0.1650391-2.5c0.6683578-1.2014313,2.2310715-1.8980865,2.3965454-2.039917
		c1.7716675-0.647583,3.732605-0.7244873,5.546814-0.2071533c0.3156891,0.0912018,0.4571686-0.388855,0.1376953-0.4804688
		c-1.9748535-0.5648193-4.1121216-0.4655762-6.0253906,0.2773438c-0.3959351,0.0565186-0.7849121,0.1030273-1.1801758,0.1289062
		c-1.9312668,0.1159515-2.2827072-0.5166397-2.3852539-0.5537109c-0.6527557-0.6240616-0.5973587-1.7793121-0.1831055-2.4873047
		c0.1694946-0.2973633,0.4071655-0.5865479,0.7185669-0.8815918c0.0291748-0.0098877,0.0608521-0.010376,0.0856323-0.0314941
		c1.9892578-1.6943359,4.8208008-2.4375,7.3862305-1.9414062c0.313858,0.0712814,0.4273834-0.425621,0.0947266-0.4902344
		c-2.7263794-0.5297852-5.6096191,0.2227783-7.7384033,2.0002441c-0.6412964-0.0215988-1.2768936-0.1100845-1.7191162-0.5715332
		c-0.6640625-0.6367188-0.5893555-1.7568359-0.1850586-2.4824219c0.5067673-0.856163,1.2644653-1.3867035,2.1357422-1.8896484
		c3.9726562-2.2900391,7.328125-2.5771484,10.2568359-0.8808594c1.628418,0.9482422,2.7719727,2.2529297,3.9829102,3.6347656
		c2.1042252,2.4017563,1.2215424,1.2997055,8.4786987,8.5244141c-2.199707,3.1371918-1.5447083,3.8606186-7.8152466,11.6090088
		c-4.0520935-4.7201004-4.5480957-5.5593491-7.8924561-4.9869385c-1.4537888,0.2195892-3.3909607-0.2018738-3.9379883-0.8925781
		C76.8803482,102.3312912,76.8316574,101.6998978,77.4622421,100.8937225z M72.9355087,91.6189423
		c-0.0346069-0.2098389-0.0701904-0.4195557-0.1074219-0.6293945c0.1556396,0.0390625,0.3129272,0.0751953,0.4898071,0.0966797
		C73.1642685,91.2621307,73.0451889,91.439743,72.9355087,91.6189423z M116.6997299,120.8274384
		c-1.9199219,3.8242188-5.5385742,6.7509766-9.6801758,7.8300781c-2.6038589,0.6791687-4.5815811,0.4236755-7.2598877-1.8948975
		c0.6031723-0.2960815,2.3283615-0.7151566,5.4138794-3.3590088c0.1182404,0.0841827,0.1866074,0.1470871,0.5515137,0.2224121
		c1.3113174,0.2703171,1.9973907-0.149292,2.779541-1.2426758c0.2402954-0.3358154,0.4667358-0.6932373,0.5622559-1.0949707
		c0.1209488-0.5088654,0.0086746-1.0742874-0.4765015-1.3693848c1.9598999-2.4450684,3.5223999-5.4887695,3.3300781-8.876709
		c-0.1583252-2.7858887-1.4837036-5.2922363-2.8638916-7.7089844c1.5006943,0.0367584,1.1744156-1.1580048,0.5325928-2.4700928
		c-0.5689468-1.1634598-1.5416641-1.9238281-2.6831055-1.4822998c-0.706543-1.4884033-1.2511597-3.0258789-1.3786621-4.6462402
		c-0.1513672-1.9248047,0.543457-4.3359375,2.4282227-5.0820312c1.0857544-0.4304047,2.4050522-0.2381668,3.6025391-0.5654297
		c1.3643188-0.3710938,2.5588379-1.4450684,3.3164673-2.9035645c3.2758026,6.4774933,3.4317017,13.0372849,3.5668335,20.1271973
		C118.539711,111.4743652,118.9140244,116.4192123,116.6997299,120.8274384z M84.6196518,76.3430634
		c-1.0363464-0.7617798-0.6857605-2.2335892,0.1538086-2.4941406c0.2027588-0.0628891,0.363884-0.1130066,0.6072998-0.4318848
		c0.9183807,0.0708237,0.7462769-0.0934525,8.4805908-1.2312012c0.3281403-0.0517502,0.246315-0.5466232-0.078125-0.4941406
		c-7.6984634,1.1981659-7.7712631,1.2779007-8.3721313,1.2304688c-0.1545563-0.1415405-0.2334595-0.0485916-0.6610718-0.2131348
		c-0.6328735-0.4223633-0.7714233-1.3865967-0.8051147-2.2299805c0.2779465-0.8322296,1.3118668-1.1356506,2.1220093-1.5100098
		c2.505249-1.1518402,5.3516388-1.5797348,7.9716797-1.2861328c0.8461914,0.09375,1.9038086,0.2919922,2.578125,0.9941406
		c0.5835876,0.6096954,0.7099304,1.7738953,0.0327148,2.2666016c-0.1532135,0.1127777-0.1289139,0.3435059,0.0356445,0.4257812
		c1.8624268,0.9300613,2.508728,3.6498795,0.578186,5.2631836C93.0366669,76.6199722,88.3268356,76.1312256,84.6196518,76.3430634z
		 M85.0740585,68.8596649c-0.1930542-1.7497559-0.3770142-3.3956299-0.5488281-4.4233398
		c0.1914673,0.0083008,0.3786621,0.0268555,0.5734253,0.0268555c0.4341812-0.0026169,0.4015274-0.5,0.0751953-0.5
		c-0.0222473-0.0063553-0.0267639,0.018158-0.8997803-0.0388184c-0.0336304-0.0075684-0.0635376-0.0275879-0.1002197-0.0187988
		c-0.0084839,0.0015869-0.0119019,0.0107422-0.0200195,0.0131836c-6.013916-0.4489746-10.2749023-5.109375-11.8857422-9.7524414
		c-0.7763977-2.2810097-2.0063858-8.6490936-0.8898315-12.4067383c0.4407883-1.4686928,1.1301193-2.8410339,2.0678711-4.0466309
		c0.4749756,0.1879883,0.9894409,0.1977539,1.513855,0.0098877c0.296814-0.1090088,2.5823975-1.0489502,2.6318359-1.1973877
		c0.3166504-0.9300537,0.6530762-1.8500977,1.019165-2.7702637c0.2275391-0.1088867,0.4650269-0.2077637,0.7025146-0.296875
		c0.2869263,0.692627,0.6233521,1.3654785,1.019104,1.9986572c5.3527832-0.9595947,10.8441162-1.1971436,16.2661743-0.6826172
		c0.6674957,0.0662956,0.5710983-0.0556717,1.2476807-1.682251c1.8894501,0.7775536,3.3794174,2.0865974,4.5750122,3.7733154
		c-4.335701,0.8472252-6.7725067,5.6356926-6.7329712,10.1976318c0.0360718,5.2006836,3.0742798,9.4992676,6.9733276,10.213501
		c-2.4069138,3.0540619-5.8766098,4.857708-9.331665,5.1530762c-0.202095-0.1190262-0.3710556,0.0407143-0.3647461,0.21875
		c-0.0290527,0.0054932-0.0578613,0.0124512-0.0869141,0.0179443c0.3674774,1.3057785,0.2264862,1.1270828,0.821167,4.4953613
		C90.3298492,66.8685913,87.7262497,67.6573029,85.0740585,68.8596649z M82.6280746,22.7131786
		c-4.3424911,1.4845371-5.7482605,4.8021679-4.7888794,7.232666c-0.5979004-0.2910156-1.2154541-0.4777832-1.8510132-0.5686035
		c0.7032242-0.5065041,0.3888626-1.7199001,0.6109619-2.2929688c1.729866-4.6439476,7.6105347-7.7254505,15.3398438-4.9775391
		C88.826683,21.5391064,85.6115952,21.6875439,82.6280746,22.7131786z M113.5971909,50.9416962
		c-1.4920654,4.4642563-4.999794,6.4270172-7.9677734,5.9462891c-3.9316406-0.5830078-6.9321289-4.8876953-6.9799805-10.0136719
		c-0.042099-7.2203712,5.293396-11.2027931,9.4086914-9.8203125
		C112.8078461,38.3837128,115.5433655,45.1453323,113.5971909,50.9416962z M80.0322495,18.6145458
		c4.8911209-1.7838211,12.8124695-2.221653,17.9716797,2.4736328c4.8512497,4.4013977,5.8196716,6.3719196,7.918457,11.9326191
		c0.4021301,1.0811882,1.2178574,2.2290573,1.4672852,3.3613281c-1.3694763-0.2293816-3.0609741,0.0350647-4.3520508,0.8027344
		l0.0078125,0.0129395c-0.0103149,0.0058594-0.020752,0.0112305-0.0310059,0.0170898
		c-0.5734711-4.7551575-3.409462-9.5751839-4.498291-11.1022968c-3.1717606-4.5613289-11.2547607-6.775341-16.5791016-4.8017578
		c-2.6016083,0.9706707-4.8663635,3.0733318-5.8051758,5.5966797c-0.2505798,0.6462822,0.0027771,1.6844578-0.409668,2.0537109
		c-0.2007446,0.1626282-0.5594482,0.1456757-0.8291016,0.1308594c-2.3741608-0.1015072-3.8558502,1.0973625-4.3041992,1.3427734
		C71.3890915,25.3920479,74.6629486,20.5846615,80.0322495,18.6145458z M79.1118393,77.3791962
		c8.3417969-1.19841,12.5838318-0.2059784,18.3476562-0.2451172c9.8849182,0,14.3168488,3.3297958,17.1218872,8.5070801
		c-0.5827026,1.2738037-1.6259766,2.5471191-3.1546021,2.963623c-1.1996002,0.3277969-2.4399796,0.1013336-3.6547852,0.5830078
		c-2.1328125,0.84375-2.9140625,3.4140625-2.7426758,5.5859375c0.1342163,1.7099609,0.7043457,3.3129883,1.4407349,4.8566895
		c-1.4620514,1.1602783-0.1414413,3.1984634,1.9686279,3.6289062c1.4153442,2.4656982,2.8235474,5.0178223,2.9827271,7.8122559
		c0.1875,3.3017578-1.3827515,6.2841797-3.3308716,8.6724854c-1.1722183-0.1600418-3.9630585,2.0488739-3.2576294,3.2926025
		c-1.6675339,1.4280167-3.4442902,2.6543961-5.5026245,3.3369141c-1.1361542-1.0464478-2.0481949-2.0782089-2.9298706-2.9611816
		c-2.6699219-2.6748047-5.2226562-5.5322266-7.5874023-8.4912109c-2.0191498-2.5250854-1.5580597-3.4833984-0.3120117-4.9746094
		c7.7117462-9.2289047,7.5498428-12.2403641,10.2470703-14.4423828c0.1992188-0.1621094,0.4169922-0.3203125,0.6586914-0.3779297
		c0.5668793-0.1420441,1.759758,0.3191299,2.3535156,1.3837891c0.1603394,0.288147,0.5981979,0.0464096,0.4365234-0.2441406
		c-0.7053223-1.264061-2.1221619-1.8174591-2.9067383-1.6259766c-0.7954559,0.1920013-1.7152786,1.289505-2.1925659,1.9135742
		c-7.1032639-7.0706863-6.2972031-6.0447617-8.4060669-8.449707c-1.184082-1.3515625-2.4082031-2.7480469-4.1074219-3.7382812
		c-2.5361328-1.4682617-5.3600464-1.5168457-8.5700684-0.1873779c-0.4530029-2.1341553-0.9144287-4.088501-1.3683472-5.8101807
		C76.0633774,77.8906326,77.6434784,77.5858002,79.1118393,77.3791962z M69.107933,70.564743
		c2.1367188-0.0634766,3.1479492,2.0039062,3.4916992,2.8876953c0.8995361,2.3143311,1.9432983,6.1887207,2.9442139,10.9177246
		c-1.1629181,0.5249634-2.7068405,1.3230362-3.5460205,2.286377c-0.8858643-4.2930908-1.8977661-8.182251-2.8161011-10.4154053
		c-0.524353-1.2862549-1.5236816-2.3250732-2.9781494-2.3054199c-12.8031654-0.6827393-25.3689003-0.5343018-37.6378784,0.6136475
		c-1.7908325,0.029541-3.15625,1.5532227-2.8989868,3.2353516l4.0962524,26.7045898
		c0.2176514,1.3851318,1.4742432,2.4141846,2.9484844,2.4141846h38.7459755c1.8502197,0,2.9979858-1.5632324,2.9287109-3.3145752
		c-0.0766602-2.234375-0.4058838-5.2612305-0.8944702-8.5262451c0.7489014,0.4718933,1.7277756,0.5054626,2.6104126,0.4298096
		c-0.5869141,0.4023438-1.171875,0.9160156-1.546875,1.5908203c-0.5195312,0.9072266-0.6005859,2.2636719,0.2509766,3.1035156
		c0.4614258,0.4462891,1.1479492,0.6826172,2.0444336,0.703125c-0.0053711,0.0087891-0.0102539,0.0175781-0.0151367,0.0263672
		c-0.4506836,0.4951172-0.4975586,1.5273438-0.0825195,2.0761719c0.4200287,0.530571,1.2733078,0.8158264,1.9331665,0.973999
		c0.2148438,2.0571289,0.3594971,3.9742432,0.4169312,5.5494385c0.0840988,2.188446-1.2459717,4.1328125-3.4208984,4.1328125
		c-51.7407837-0.0165329-48.517395,0.0424576-49.1064453-0.046875c-1.8710728-0.2898941-2.6453362-1.9789276-2.5605469-1.8789062
		c-0.6126957-1.4797821,0.3175449,2.4135513-5.4624023-36.3691406c-0.3004341-2.0474014,1.2476349-3.9394302,3.4086914-3.9785156
		C37.2824631,69.826767,53.610775,69.6993942,69.107933,70.564743z M60.4945869,89.3114471
		c-0.3859253,0.791626-1.1675415,1.5733643-1.8007812,2.1569824c-1.6558571,1.5293808-3.066082,2.2131195-10.7550659,6.6984863
		c-1.711731,0.9991455-2.8792114,0.5738525-3.4827881-0.8112793c-0.6027069-1.4072266-1.2696342-7.72715-1.4049683-9.2611084
		c-0.1484375-1.6622314-0.9102783-5.0461426,0.3264771-6.480835c1.7512817-2.067749,7.0348511,0.6827393,8.8256836,1.4742432
		C53.9346504,83.8497772,61.7708931,86.7093964,60.4945869,89.3114471z"/><path d="M23.3811245,67.979538c2.1074829,0.6035156,4.3436279,0.0493164,6.4511108-0.5443115
		c1.9590454-0.5540771,1.1674805-2.7504883,0.7321777-4.2247314c-0.1682129-0.5838623-0.4057007-1.1972656-0.9102783-1.5435791
		c-0.5771179-0.3927193-2.7732258-0.8823624-4.8877563-0.4847412c-0.8806152,0.1679688-2.8495483,0.2670898-3.0276489,1.4047852
		c-0.0495605,0.2573242,0.0296631,0.5146484,0.098877,0.7619629C22.6640987,66.6200638,21.7553444,67.4796524,23.3811245,67.979538z
		 M23.9945889,66.4656219l1.9590454-1.8007812c-0.5441895-0.4847412-1.0883789-0.9597168-1.6325073-1.444458
		c-0.2437687-0.221756,0.0848598-0.5937195,0.3264771-0.3760986c0.5540771,0.4946289,1.1081543,0.989502,1.6721802,1.4742432
		l2.1569214-1.9887695c0.2296619-0.2292404,0.5712147,0.1313591,0.3363647,0.3662109l-2.1173706,1.9591064
		c0.692627,0.5935059,1.3851929,1.1872559,2.0679321,1.7709961c0.2561283,0.2091522-0.068058,0.5849838-0.3166504,0.3857422
		c-0.7024536-0.6035156-1.414856-1.2070312-2.1173706-1.8204346l-1.9985962,1.840332
		C24.06464,67.0454636,23.7576942,66.6786957,23.9945889,66.4656219z"/><path d="M39.1427193,62.5771942c-0.9692993,0.0217323-3.2104836,0.0719795-3.0870361,0.0692139
		c-0.9558868,0.0251389-1.1477051,0.2417259-1.1477051,1.0092773v0.2076416
		c-0.0098877,0.6827393-0.0098877,1.8208008,0.6134644,2.0681152c0.1879883,0.0690918,0.4155273,0.0888672,0.6332397,0.0987549
		c1.1278687,0.0594482,2.5328979,0.1287842,3.6311646-0.4550781c0.1480713-0.0739594,0.1879883-0.1152267,0.1879883-0.3165283
		c0.0395508-0.6530762-0.0197754-1.315918-0.1484375-1.9689941C39.6803398,62.6006432,39.4571533,62.5771942,39.1427193,62.5771942z
		"/><path d="M39.8056221,60.6973114c-1.2961426-0.3266602-2.7209473-0.395752-4.0467529-0.1484375
		c-0.8706665,0.1682129-2.8495483,0.2670898-3.0276489,1.4050293c-0.0395508,0.2573242,0.0296631,0.5145264,0.098938,0.7618408
		c0.8529053,3.2407379-0.1041336,4.1192703,1.5534058,4.6304932c2.0975952,0.6035156,4.3436279,0.0495605,6.4411621-0.5441895
		c1.9590454-0.5540771,1.1774292-2.7507324,0.7420654-4.2248535C41.1454735,61.1958084,40.6873856,60.9322548,39.8056221,60.6973114
		z M40.0233345,66.0105438c-0.8410034,0.4451904-1.8007812,0.5539551-2.7011719,0.5539551
		c-2.2048531,0-2.9414635-0.0532837-2.9088745-2.7109375c0.0094261-0.2955627-0.0494499-0.831131,0.2670898-1.2269287
		c0.4423599-0.5650558,1.0143051-0.4698067,4.3436279-0.5443115c0.6824417-0.0354538,1.0765877,0.1903877,1.2861938,1.1083984
		c0.1385498,0.6925049,0.197937,1.3950195,0.1583862,2.0974121C40.4443321,65.6262283,40.3784256,65.8327255,40.0233345,66.0105438z
		"/><path d="M52.1140938,60.6973114c-1.3060303-0.3266602-2.7209473-0.395752-4.0467529-0.1484375
		c-0.8706665,0.1682129-2.8495483,0.2670898-3.0276489,1.4050293c-0.0396118,0.2573242,0.0296631,0.5145264,0.098938,0.7618408
		c0.8458557,3.2139587-0.1075172,4.1371841,1.5534058,4.6304932c2.0975952,0.6035156,4.3336792,0.0495605,6.4411621-0.5441895
		c1.9590454-0.5540771,1.1675415-2.7507324,0.7321777-4.2248535C53.4676552,61.1965065,52.9848328,60.9293175,52.1140938,60.6973114
		z M52.371357,63.7744598c-1.6029053-0.0297852-3.2057495,0.1087646-4.7789307,0.3857422
		c-0.2452202,0.1241226-0.4650688-0.4042358-0.0890503-0.4847412c1.6028442-0.2869873,3.2453613-0.425415,4.8778687-0.395752
		C52.6697273,63.2797089,52.7287025,63.7518654,52.371357,63.7744598z"/><path d="M57.0019112,110.0339813c-0.1055908-1.3205566-1.3302002-2.4538574-2.6549072-2.4569092
		c-1.6029663-0.0037842-3.4569092,1.9801025-2.3602905,3.520874
		C53.1580124,112.7434082,57.1920624,112.4066772,57.0019112,110.0339813z"/><path d="M86.9399643,55.7004852c1.1135635-0.5721893,1.1292267-1.9007988,1.0351562-3.0722656
		c-0.0267715-0.3431206-0.524231-0.281929-0.4980469,0.0390625c0.075676,0.9450798,0.1253967,2.1327477-0.765625,2.5878906
		c-0.3886719,0.2001953-0.8837891,0.1611328-1.3217773,0.1279297c-0.3047333-0.0482979-0.3873596,0.4707985-0.0380859,0.4980469
		C85.8904343,55.9228287,86.4455719,55.9532547,86.9399643,55.7004852z"/><path d="M129.0796051,88.0862274c-0.2267303,0.2443466,0.1452484,0.5793839,0.3652344,0.3417969
		c10.1615448-10.8897018,11.0812531-27.6402283,2.0996094-39.5830078c-0.6577148-0.8740234-1.453125-1.8232422-2.4697266-2.4589844
		c0.8022461-4.6201172-0.5991211-9.5839844-3.7260666-13.0839844c-3.2587891-3.6455097-8.3032227-5.6054707-13.1713867-5.1220722
		c-0.3286133,0.0327454-0.2800827,0.5306854,0.0498047,0.4980469c4.7060547-0.4736328,9.5942383,1.4287109,12.7485352,4.9580097
		c2.9882812,3.34375,4.3481369,8.0673828,3.6352463,12.4902344c-2.3927994-1.1964035-5.2754211,0.1056671-4.8432541,2.6689453
		c0.254982,1.5093575,1.6901779,2.128891,2.9072266,1.5273438c1.1799469-0.5835075,2.0683517-2.1848869,2.2973557-3.40625
		c0.8735352,0.5917969,1.5805664,1.4423828,2.1728516,2.2294922
		C139.9512939,60.8555222,139.1098938,77.3376007,129.0796051,88.0862274z M126.4531479,49.8743134
		c-0.9344177,0.467701-1.9975891-0.0076027-2.1923828-1.1621094c-0.3544006-2.105011,2.0586548-3.2287407,4.2578049-2.0712891
		C128.5039215,46.7141571,127.5315399,49.3411255,126.4531479,49.8743134z"/><path d="M18.1176968,53.0071259l5.6220703,4.0322266c0.2683029,0.1907921,0.5600052-0.2144508,0.2910156-0.40625
		l-5.6220703-4.0322266C18.1385555,52.4073982,17.8495407,52.815918,18.1176968,53.0071259z"/><path d="M26.2217007,55.6389618c-1.5097656-3.4628906-2.7495117-7.0771484-3.6855469-10.7431641
		c-0.0811424-0.3176117-0.5665798-0.1987228-0.484375,0.1230469c0.9423828,3.6923828,2.1914062,7.3320312,3.7119141,10.8193359
		C25.8946743,56.140686,26.3551464,55.9436417,26.2217007,55.6389618z"/><path d="M29.1616421,55.2668915c0.3066406-2.5556641,0.2866211-5.1445312-0.0605469-7.6933594
		c-0.0443764-0.3185959-0.5401211-0.2656097-0.4951172,0.0683594c0.3408203,2.5058594,0.3608398,5.0517578,0.0595703,7.5664062
		C28.6258259,55.5354195,29.1226292,55.596611,29.1616421,55.2668915z"/></svg>