<svg xmlns="http://www.w3.org/2000/svg" enable-background="new 0 0 156 156" viewBox="0 0 156 156"><path d="M71.1526337,72.9293289c0.5075073-0.5491333,1.1637573-0.944397,1.8762207-1.1785889
		c-0.0889282,0.0847778-0.1134644,0.2185059-0.0402832,0.321167c0.5498047,0.7646484,0.7519531,1.7680664,0.5410156,2.6835938
		c-0.0756836,0.3251877,0.4127426,0.4352417,0.4863281,0.1123047c0.2441406-1.0537109,0.0117188-2.2080078-0.6210938-3.0878906
		c-0.0357056-0.0491333-0.0888062-0.0736694-0.1428833-0.0880127c1.0678101-0.295166,2.2377319-0.2380371,3.2288208,0.2510986
		c0.2909851,0.1489868,0.5210037-0.3004532,0.2207031-0.4482422c-1.9189453-0.9482422-4.4638672-0.4775391-5.9160156,1.0957031
		C70.5580215,72.8356476,70.934967,73.1687622,71.1526337,72.9293289z"/><path d="M49.9163017,72.1153641c1.041256-0.347084,1.8732491-0.375145,2.8349609-1.0136719
		c1.5680695-1.0347137,1.0400543-2.4692993,0.8505859-3.9072266c-0.526207-3.9115868-1.1179962-5.1002464-1.6406517-8.9887657
		c-0.0452232-0.3334351-0.5400085-0.2573814-0.496067,0.0664062c0.2646484,1.9677734,0.5488281,3.2631836,0.8242188,4.5151367
		c0.6857948,3.1266289,0.6731377,3.6211052,0.9130859,5.0996056c0.3027687,1.8389053,0.2612724,2.7894745-2.4980469,3.487793
		c-0.3017578,0.0766602-0.6142578,0.1557617-0.9462891,0.2661133
		C49.4430389,71.7453842,49.6036491,72.2195816,49.9163017,72.1153641z"/><path d="M41.9383354,63.108593c0.737812,0.084507,1.4268837-0.4720001,2.5327148-1.18573
		c0.3466187-0.2237549,0.7008667-0.4544678,0.9484253-0.7845459c0.6824722-0.9099655,0.0400963-1.867115-0.9960327-1.7515869
		c-0.4734497,0.0528564-0.8974609,0.3119507-1.2823486,0.5926514c-0.776123,0.565979-1.9054565,1.355896-1.8191528,2.4517212
		C41.3559227,62.8625488,41.567852,63.066227,41.9383354,63.108593z"/><path d="M45.1506767,64.5460281c0.1162109,0.0693359,0.2714844,0.0322266,0.3427734-0.0869141
		c0.2506104-0.4228973-0.8136711-0.6713066-1.2597656-0.6855431c-0.6650391-0.0073242-1.3935547,0.2524376-1.9667969,0.751461
		c-0.2482185,0.2145844,0.075264,0.5941849,0.328125,0.3774414C43.3282509,64.2648087,44.3183594,64.0506744,45.1506767,64.5460281z
		"/><path d="M56.9214287,61.3367424c0.6345024,0.5154266,2.036541,0.9464874,2.6964111,0.6849365
		c0.6288261-0.2490578,0.8695526-1.0656586,0.4376831-1.6867676c-0.3930702-0.5653877-1.8073349-1.1604385-2.5441895-1.1622925
		c-0.5337524-0.0012817-1.100769,0.2523804-1.3234863,0.7374268C55.9526176,60.4223137,56.5408134,61.0275993,56.9214287,61.3367424
		z"/><path d="M58.0951958,63.1063957c-0.2753296,0-0.4985352,0.2705078-0.4985352,0.604248
		c0,0.3337364,0.2232056,0.6043053,0.4985352,0.6043053s0.4985352-0.2705688,0.4985352-0.6043053
		C58.5937309,63.3769035,58.3705254,63.1063957,58.0951958,63.1063957z"/><path d="M44.0950127,75.4552078c0.7309647,1.4060745,1.4976654,2.5532227,3.0986328,2.5532227
		c0.6318359,0,1.3398438-0.1875,2.1162109-0.5625c0.2976456-0.1430054,0.0829811-0.5931625-0.2167969-0.4501953
		c-1.1210938,0.5390625-2.0546875,0.6547852-2.7802734,0.3393555c-0.8066406-0.3496094-1.2998047-1.1977539-1.7744141-2.1103516
		C44.3855782,74.9330444,43.9423599,75.1604767,44.0950127,75.4552078z"/><path d="M25.5188408,72.1153641c0.5498047,0.7641602,0.7519531,1.7675781,0.5410156,2.6831055
		c-0.075079,0.3226089,0.4129581,0.4343262,0.4863281,0.1123047c0.2441406-1.0537109,0.0117188-2.2080078-0.6210938-3.0874023
		c-0.0355225-0.0496216-0.088562-0.074646-0.1429443-0.0888672c1.0682983-0.2953491,2.2387085-0.237854,3.2288818,0.2519531
		c0.2933369,0.1478424,0.5196476-0.3011169,0.2207031-0.4482422c-1.9160156-0.9482422-4.4628906-0.4794922-5.9160156,1.0952148
		c-0.2290993,0.2470016,0.1487656,0.5791321,0.3671875,0.3388672c0.5072632-0.5493164,1.1634521-0.9447632,1.8759155-1.1789551
		C25.4699516,71.8783035,25.4454155,72.0123978,25.5188408,72.1153641z"/><path d="M117.5852509,52.7681999c0.5332031-0.1586914,1.125,0.1821289,1.4677734,0.590332
		c0.8731766,1.0367317,0.8612976,2.6921883,3.2597656,5.065918c0.8044128,0.8001213,1.4946442,0.6888084,2.0664062-0.0844727
		c1.2384567-1.6762772,0.8162842-4.8025589,2.1484375-5.2255859c0.7607422-0.2397461,1.4394531,0.6347656,1.7148438,1.2817383
		c0.3691559,0.8685951,0.6149597,1.8898659,1.4746094,2.4013672c1.1777344,0.6987305,2.6132812-0.0961914,3.3632812-0.6337891
		c1.3195038-0.9527206,1.9369049-1.3789101,2.8027344-1.3461914c0.9835052,0.0500946,1.83992,1.0307007,1.7539062,2.0126953
		c-0.0282593,0.3309059,0.467865,0.3691673,0.4980469,0.0429688c0.1105957-1.2626038-0.9596405-2.4912376-2.2265625-2.5546875
		c-1.0869141-0.0605469-2.0019531,0.6230469-2.8173828,1.2197266l-0.3017578,0.2192383
		c-0.6513672,0.4658203-1.8847656,1.1650391-2.8164062,0.6103516c-0.695816-0.4139442-0.9173584-1.336853-1.2695312-2.1669922
		c-0.4287109-1.0073242-1.3662109-1.8662109-2.3261719-1.5629883c-1.7382202,0.551033-1.1965714,3.7750015-2.4003906,5.4052734
		c-0.4654617,0.6307755-0.8285065,0.5069199-1.3125,0.0263672c-2.2668228-2.2435455-2.3171158-3.9481392-3.2285156-5.0332031
		c-0.4150391-0.4926758-1.1865234-0.9833984-1.9912109-0.7475586
		C117.1325378,52.3793488,117.2598495,52.8572693,117.5852509,52.7681999z"/><path d="M134.8743134,68.797493c-0.8544922,0.5473633-1.7695312,1.003418-2.71875,1.3554688
		c-1.4523163,0.5400085-1.8656158,0.0401917-2.5185547-1.402832l-0.0341797-0.0751953
		c-0.865921-1.8945465-2.1602478-1.9634171-3.0898438-0.9487305c-0.6171875,0.6738281-0.9169922,1.5351562-1.2060547,2.3676758
		c-0.0641632,0.1846619-0.4973297,1.4633713-0.6787109,1.5415039c-0.0820312,0.034668-0.2451172-0.0693359-0.3945312-0.2558594
		c-1.1938934-1.4883728-2.1337204-4.2291794-4.4775391-4.6206055c-0.3228683-0.0557861-0.4106979,0.4379959-0.0820312,0.4931641
		c2.6732712,0.4476013,3.5918198,4.8916016,4.9179688,4.8916016c0.9811478,0,1.1060028-2.7879181,2.2900391-4.0795898
		c0.8905029-0.9720917,1.7118988-0.3951645,2.265625,0.8178711c0.766571,1.6924438,1.3995819,2.401947,3.1816406,1.7397461
		c0.9833984-0.3642578,1.9296875-0.8364258,2.8144531-1.4033203
		C135.4229279,69.0389862,135.1527252,68.6193542,134.8743134,68.797493z"/><path d="M119.3098602,42.2535515c2.6248322,0.7714958,2.9137115,2.6111259,3.9570312,2.2270508
		c0.9818268-0.3628502,1.0523987-2.7197685,1.9970703-3.4946289c0.4189453-0.3413086,1.0175781-0.4443359,1.5224609-0.2597656
		c1.1229324,0.4087868,1.562973,1.9467163,2.7011719,2.6235352c0.6103516,0.3618164,1.5498047,0.4321289,2.0898438-0.1557617
		c0.2230225-0.2416153-0.140976-0.5815735-0.3671875-0.3388672c-0.3496094,0.378418-1.0205078,0.3305664-1.4667969,0.0649414
		c-1.0283051-0.6121864-1.4745636-2.1858368-2.7851562-2.6635742c-0.6708984-0.2446289-1.4589844-0.1083984-2.0107422,0.3427734
		c-1.0078735,0.8247719-0.9511871,2.2278481-1.6191406,3.1889648c-0.6595154,0.9539337-0.9004517-1.1407318-3.8779297-2.0141602
		C119.1296921,41.6830864,118.9948349,42.162056,119.3098602,42.2535515z"/><path d="M46.8017998,31.7043571c0.4443359,0.5280151,1.4863892,0.2805786,2.0784302,0.2804565
		c5.3465614,0,9.1776543,0,14.5263062,0c0.5393066,0,1.7443886,0.2370605,2.1987343-0.137207
		c0.5161743-0.4252319,0.3175659-1.7556152,0.3305664-2.3557739c0.0437622-2.0206299-0.0751343-4.0447998-0.3560791-6.0462646
		c-0.1644897-1.1723022-0.4951172-2.3939209-1.8164711-2.4624634c-0.2762909-0.0143299,1.2212334,0.0001831-15.1056519,0.0001831
		c-0.8131104-0.0524902-1.791748,0.1169434-2.1702271,0.838501c-0.2064247,0.3935852-0.1899338,0.8857193-0.21698,1.5726929
		C46.2251167,24.547451,45.9802666,30.7283649,46.8017998,31.7043571z"/><path d="M14.2151299,130.7462311c2.694521-2.3661346,17.1833992-15.0938339,21.6494141-19.0200272
		c2.9447708-2.5800934,5.981617-7.6511002,12.5673828-4.878418c1.2479897,0.5311432,3.7289963,1.8602676,4.3632812,3.2109375
		c0.3457031,0.6982422,0.3320312,1.7382812-0.2939453,2.2749023c-0.3444824,0.3152466-0.8807373,0.4469604-1.5940552,0.4241943
		c-1.8792114-1.7582397-4.5151978-2.6040649-7.0582886-2.2576904c-0.3418617,0.046402-0.2426376,0.5546417,0.0664062,0.4951172
		c2.390625-0.3188477,4.9628906,0.5102539,6.7089844,2.1772461c0.0205078,0.0194702,0.0484009,0.0178833,0.0725098,0.0291138
		c0.2734375,0.2863159,0.4776611,0.5643311,0.6179199,0.8434448c0.3438225,0.7254333,0.3266029,1.7418518-0.2890625,2.2744141
		c-0.7650833,0.6675797-2.3292351,0.4029465-3.3224487,0.1946411c-1.7287598-0.7796021-3.6971436-0.9814453-5.5457153-0.5657349
		c-0.3237228,0.0738983-0.2127991,0.5627441,0.109375,0.487793c2.9021797-0.6492538,5.230423,0.5399628,5.1298828,0.5136719
		c0.808918,0.5032272,1.65242,1.1143341,2.078125,1.9682617c0.3369141,0.6899414,0.3505859,1.7241211-0.2880859,2.2802734
		c-0.7003899,0.6032104-1.8789597,0.3839035-2.0605469,0.3996582c-2.4750595-1.4078293-4.8978767-1.3297043-4.7978516-1.3151855
		c-0.3294487,0-0.3310432,0.4953613-0.0039062,0.5c1.6386719,0.0253906,3.2519531,0.4765625,4.6660156,1.3051758
		c0.0039673,0.0023193,0.008728,0.0014038,0.0127563,0.003479c0.0602417,0.09021,0.1204224,0.1865234,0.1591187,0.2704468
		c0.0107422,0.0229492,0.0244141,0.0439453,0.0410156,0.0629883c0.2587891,0.2885742,0.2577858,1.0107422-0.0039062,1.3115234
		c-0.3448296,0.4082565-1.9438667,0.9788284-3.6728516,0.6176758c-2.5449219-0.5957031-3.4169922-0.0180664-5.0947266,1.6577148
		c-5.6013527,5.6353531-8.3497105,8.8814774-13.9462891,15.7988358c-0.2092648,0.2586365,0.1804867,0.5695801,0.3886719,0.3144531
		c5.688776-7.029129,8.3894653-10.20401,13.9121094-15.7602615c1.5976562-1.597168,2.3076172-2.0644531,4.6328125-1.5224609
		c1.3616104,0.2850647,3.4704208,0.0351028,4.1591797-0.7802734c0.421875-0.4833984,0.4296875-1.4462891,0.0253906-1.9389648
		c2.8661804,0.10112,3.3638039-2.697998,1.5286865-4.4839478c0.251152-0.2144318,0.3095131-0.299057,0.4046021-0.3996582
		c0.6652184-0.0077057,1.2969131-0.0898361,1.8157349-0.5426636c0.5498047-0.4746094,0.7900391-1.2675781,0.6445312-2.1201172
		c-0.0110474-0.0651855-0.0423584-0.1208496-0.057312-0.1842651c3.4863892-4.1460571,6.9812012-8.2838135,10.4760742-12.4215698
		c7.9234047,0.8407059,12.2429085,4.4247131,14.8341713,13.1385498c1.7957001,6.040863,1.3623886,12.8451614,1.6591797,19.1401443
		c0.0170441,0.3336334,0.5140762,0.3074646,0.5-0.0234375c-0.2996521-6.3281631,0.1388779-13.1429443-1.6806641-19.259285
		c-0.9555664-3.2165527-2.1433716-5.7247314-3.6265869-7.6661987c1.4420166-1.0717773,3.3380737-1.7814941,3.77771-3.4827271
		c0.7043533-2.6818314-2.7841949-5.5418549-4.3599854-7.7399902c-1.1900024-1.6599731-1.9799805-3.8900146-1.0999756-5.7399902
		c0.3692627-0.784668,0.9906616-1.3997192,1.6033936-2.0201416l19.4320068,0.8265991
		c-0.2052002,0.5426025-0.2702637,1.1484375-0.2354736,1.7735596c0.1201172,2.4899902,1.6401367,2.4499512,3.7600098,2.5
		c1.541626,0.0397949,3.0866699,0.0596313,4.6329346,0.0689087l0.2514648,3.4696655
		c-0.5828018,0.5304642-0.9524002,1.3577652-0.8095703,2.1203003c0.1070328,0.5716324,0.4446106,1.5874176,1.0209961,1.680603
		c-0.2254944,2.680809-4.0878677,2.0751648-7.092041,3.531189c-1.7324219,0.840332-3.1630859,2.7973633-2.5576172,4.6181641
		c0.4765625,1.4331055,1.9453125,2.1542969,3.1611328,2.3510742c1.7662048,0.288269,3.1025772-0.2059784,5.9602051-0.2752686
		c-0.5358582,1.3145599,3.5314407,1.6951828,3.7723389,0.1907959c2.7005615,0.3330688,5.3452148,1.0806885,7.8299561,2.25
		c0.8837891,0.4165039,1.5664062,0.8208008,2.0244141,1.4394531c0.7751312,1.0467834,0.7413559,2.2338257-1.1660156,2.9697266
		c-1.5708008,0.6054077-3.1818848,1.1346436-4.8009033,1.6298828c-0.8499756-0.4182739-2.1873779-0.5767212-2.7497559-0.1604004
		c-0.3431396,0.2539673-0.7662354,0.7521362-0.8441162,1.2084961c-3.4131775,0.947464-5.1586456,1.2604904-6.4528809,2.5085449
		c-1.0703125,1.0327148-1.5439453,2.9355469-0.5429688,4.1225586c2.0093765,2.3821793,5.4481049-0.5797119,13.5371094,0.8339844
		c0.6201172,0.1088943,1.3154297,0.2656326,1.7138672,0.7461014c0.411377,0.4962769,0.371582,1.1318359,0.182373,1.718689
		c-0.6308594-0.1057739-1.3901367,0.2069702-1.81604,0.6654053c-0.4388428,0.4724121-1.3546143,2.1363525-1.1583252,2.7106323
		c0.0500488,0.1467285,0.1616211,0.2462769,0.2924805,0.3226318c-1.9130859,1.9528809-4.1882324,3.5383301-6.699707,4.647583
		c-0.3041687,0.1333618-0.0980072,0.5930176,0.2011719,0.4570312c2.65625-1.1730347,5.0526123-2.8671265,7.0498047-4.958374
		c0.8057632,0.0231476,1.5815811-0.4425354,2.1879883-0.9735718c1.319252-1.1556702,1.0736084-2.2338257,0.4122314-2.6793823
		c0.2856445-0.8794556,0.2039795-1.6621094-0.2672119-2.2299805c-0.4824219-0.5820389-1.2519531-0.7856522-2.0126953-0.9189529
		c-7.8623657-1.376358-11.5341492,1.3585739-13.2402344-0.6640625c-0.8212891-0.9731445-0.4003906-2.5644531,0.5078125-3.4404297
		c1.1518402-1.1114349,2.5819778-1.3720779,6.2036133-2.3768921c0.4931335,0.7150574,2.2465286,0.3549805,3.0963135,0.1630249
		c0.3026123-0.0683594,0.6131592-0.1555176,0.8497314-0.3563232c0.4121094-0.3499756,0.364624-0.6962891,0.0753174-0.987915
		c1.5004883-0.4655762,2.9942627-0.9586792,4.4547119-1.5214844c2.2005157-0.8484116,2.3357773-2.4532394,1.3886719-3.734375
		c-0.5507812-0.7436523-1.3896484-1.2055664-2.2138672-1.59375c-2.5817871-1.2150269-5.3328857-1.9855347-8.1413574-2.3143311
		c-0.4881592-0.9715576-2.3188477-0.7775879-3.2185059-0.173645c-3.2984543,0.0206604-4.5524597,0.5680237-6.3354492,0.2814331
		c-1.0224609-0.1660156-2.3603516-0.7929688-2.7666016-2.0161133c-0.5185547-1.5595703,0.7626953-3.2636719,2.3017578-4.0097656
		c2.9967194-1.4545212,7.198204-0.7609711,7.376709-4.085022c0.8100891-0.466095,0.7180939-2.1310272,0.5063477-3.0117798
		c-0.1025925-0.4264145-0.2970886-0.8489075-0.7353516-0.8894653l-0.2365723-3.265564
		c1.005127,0.0040283,2.010498,0.0083008,3.0163574,0.0009155c1.4183044-0.0403137,1.5005569-0.3173981,2.1948242-3.7515259
		c21.4986877,0.8957825,26.2974854,1.5327682,32.057373-0.4121094c2.3831635-0.8259583,2.8680725-1.8581238,2.8173828-4.4916992
		l-1.3798828-63.6796837c-0.0332031-1.7270508-0.1259766-3.2636719-0.9267578-4.5761719
		c-1.6113281-2.6074228-7.2089844-2.2446299-11.2910156-1.9794931c-3.8932724,0.2516298-0.8884506,0.0730486-19.2773438-0.1791992
		c-46.2705803-0.8429585-40.8384323-0.9635239-61.7236366,0.328125c-2.2031212,0.1356163-2.4497986,0.1296043-2.8652344,0.2763672
		c-1.5295296,0.547617-1.7921257,2.4824324-2.0712891,3.5458994c-1.4968224,7.4055614-0.1749725,14.8721924-0.234375,22.3168945
		c-0.0203247,2.2272949-0.046875,4.6223755-0.1164551,7.0766602c-1.4491577,1.492981-2.5252075,3.4467773-1.7949219,4.9180908
		c-0.2372437,0.0670776-0.5020142,0.0428467-0.7086792-0.1121216c-2.6999512-1.9700317-6.8399658-1.6400146-9.1900024,0.75
		c-2.4928532,2.5982933-3.8188267,7.5977287-4.2769165,11.2300377c-3.7414551,0.0376205-7.3000755,3.0953674-7.9794312,6.8863525
		c-0.6289062,3.5610352,1.3476315,7.4257812,4.5957031,8.9882812c0.7827816,0.3838959,1.3174095,0.4851303,1.8859863,0.6173096
		c-0.0072632,0.276062-0.0153198,0.552002-0.0153198,0.8280029c-0.0200195,2.7200317,1.4799805,4.3900146,0.25,7.2299805
		c-0.6400146,1.4800415-1.5100098,2.9200439-1.5800171,4.5300293c-0.0799561,2.1599731,1.3300171,4.1199951,3.0100098,5.4799805
		c0.9400024,0.7700195,2.0400391,1.4700317,2.4899902,2.6000366c0.6400146,1.6399536-0.3299561,3.4199829-1.1999512,4.9500122
		c-0.8256226,1.4783325-1.5606689,3.3300781-0.7791748,4.7767334c-0.677887,1.4393311-2.3730164,6.1500473-3.3817749,10.1647949
		c-3.2505493,2.8568726-6.5004272,5.7136841-9.7539673,8.5706863
		C13.6375608,130.588562,13.9649172,130.9636993,14.2151299,130.7462311z M37.9699516,97.2580032
		c0-0.3340378,0.5-0.3248749,0.5-0.0100098l0.0499878,3.9500122c0,0.3340454-0.5,0.3248825-0.5,0.0100098L37.9699516,97.2580032z
		 M44.9241142,101.1324539c-0.4184456-0.7579803-0.1394234-1.7830124,0.84375-2.2246094
		c0.2560806-0.1151428,0.3319855-0.1600266,0.4853516-0.3043213c0.7517433,0.0531998,0.3100662,0.0478821,8.9677734-1.2991943
		c0.316433-0.0500793,0.263855-0.5346375-0.078125-0.4941406c-8.2518196,1.2859344-8.1198959,1.301445-8.6396484,1.3092651
		c0.0539017-0.5080261-0.3281136-0.6573715-0.7724609-0.8175659c-0.4033203-0.1391602-1.3164062-0.5805664-1.0664062-1.671875
		c0.2095413-0.9861069,1.361599-1.3131409,2.2900391-1.7348633c2.6416016-1.2163086,5.5625-1.6850586,8.4599609-1.3583984
		c0.8261719,0.0859375,2.0087891,0.2880859,2.7441406,1.0532227c0.362114,0.3820724,0.5900841,1.0005875,0.5001221,1.6030884
		c-1.8400269,2.0715332-3.5978394,4.0521851-5.2427368,5.9072876
		C46.7360954,100.7715454,45.323452,101.1213913,44.9241142,101.1324539z M67.6826019,67.632576
		c0.8329468-1.6643677,3.0013428-2.2982788,4.6887817-2.1749268c3.3896484,0.2514648,6.4560547,2.9511719,7.1337891,6.2802734
		c0.0015869,0.0078125,0.0021362,0.0158081,0.0037231,0.0236206c-2.7377319,3.0726929-5.5525513,6.2330322-8.3551025,9.3813477
		c-1.7161255-0.1521606-3.3334961-0.8988037-4.5802612-2.244812c-0.0161133-0.017334-0.0405273-0.015686-0.0598755-0.0274048
		C68.0656128,75.3529892,68.3340225,71.454361,67.6826019,67.632576z M43.1536064,18.6695671
		c0.2457695-0.9514866,0.4931717-2.7258081,1.7490234-3.1757822c0.3398666-0.1205196,0.5657234-0.1155052,2.7294922-0.2485352
		c21.1703529-1.3086958,15.9267082-1.162509,61.682621-0.3271484c18.2649078,0.2501173,15.429863,0.4306068,19.3193359,0.1782227
		c3.734375-0.2421875,9.3798828-0.6088867,10.8330078,1.7421885c1.1717224,1.9194317,0.670517-1.6884794,2.2324219,68.0043945
		c0.0469055,2.40271-0.2932739,3.2501526-2.4794922,4.0083008c-4.609375,1.5566406-9.7167969,1.3330078-14.2197266,1.1367188
		c-59.1847076-2.5221786-31.1988373-1.3286743-50.5244751-2.1516724c0.3924026-0.4209213,0.6478882-0.6920624,1.046814-1.4001465
		c6.7948761-8.0515671,0.983284-1.1754761,14.7199707-17.423645c0.9186096,0.6228333,2.6264191,0.7344818,3.8731689,0.7929077
		c-0.1915283,0.0401001-0.3554688,0.104248-0.4377441,0.2161865c-0.2541504,0.3463745,0.0222168,0.937439,0.2893066,1.1757812
		c1.0139389,0.9006805,5.0231323,0.5006027,5.7962646-0.3813477c0.2001953-0.2319336,0.2733154-0.6101074,0.0858154-0.8547974
		c-0.1286621-0.1732178-0.3381348-0.2357178-0.5522461-0.2642822c0.7884674-0.0645981,2.5223999-0.2383347,3.2949219-0.5922852
		c1.4299011-0.6606216,1.6976395-2.1726074,0.7597656-2.9365234c0.1047363-0.0606689,0.1994629-0.137207,0.2905273-0.2173462
		c1.0830078-0.6243515,1.1457367-2.0156097,0.2885742-2.9274864c0.7798309-0.4051132,0.9415054-0.7033501,1.0991211-0.942688
		c0.8055573-0.9799156,0.4938736-2.3280678-0.7653809-2.9702759c0.9872742-4.683609,0.4588623-2.9492149,2.2824707-6.4783325
		c2.4556122-4.7514381,5.7657928-7.9455566,7.0332031-12.5507812c2.6337051-9.5714874-5.6367645-19.0092659-16.6035156-18.5698242
		c-9.3054276,0.3723984-16.3690033,7.7669392-16.1992188,14.9013672c0.1823425,8.0775681,9.3460617,14.4312897,8.5615234,22.4594727
		c-0.2068329,0.1160164-0.6390305,0.5428772-0.7109375,0.6464844c-0.1599121,0.2304077-0.2294922,0.5079346-0.2207031,0.8224487
		c-0.0838318,0.5549965-0.0198059,0.887207,0.1486816,1.2706299c-2.6977539,3.0253258-5.6185303,6.301693-8.6434937,9.6965904
		c-0.9106445-3.624855-4.4394226-6.39048-8.0305176-6.3569946c-0.8348389-3.5191002-1.8327637-7.1309166-3.7515259-10.1446495
		c2.2543869-2.9264183,1.7486801-6.4788818-1.7891846-9.2973633c-4.2320595-3.37146-10.1759071-4.4597778-15.3328896-2.8218994
		c-2.8728485,0.9124527-6.2756233,3.0519409-8.1778564,4.7739868c0.059082-2.2789917,0.0803223-4.4963989,0.0992432-6.5716553
		C42.9887733,33.4738884,41.6764984,25.9823475,43.1536064,18.6695671z M88.9204559,60.3382072
		c0.0507812-0.2675781,0.1496582-0.5270386,0.324707-0.737793c0.3842087-0.2792587,0.9601898-0.3339119,1.4631348-0.4018555
		c-0.52771,0.5915527-1.0672607,1.1965942-1.6157227,1.8117065C88.9333115,60.7091446,88.9287415,60.6159554,88.9204559,60.3382072z
		 M97.6780243,47.5260124c0.2501831-0.0070915,0.8857574,0.0356674,1.9121094-0.1469727
		c-0.0623779,0.6764526-0.0949707,1.3538818-0.1474609,2.0310059c-0.5576172,0.6245728-1.1589355,1.2980957-1.8127441,2.0307007
		C97.7534637,50.1385612,97.7775116,48.829113,97.6780243,47.5260124z M92.649704,69.0089188
		c-0.7021484-0.0758057-1.4125977-0.1931763-1.9631348-0.5216064c3.1094513-3.6777878,5.3865128-6.377285,8.277832-9.7848473
		c1.1285248,0.0732841,3.6919556,0.3139534,4.7526855,0.7125854c0.0113525,0.0939331,0.0592041,0.1803589,0.1542969,0.2110596
		c0.2380981,0.0767288,0.619812,0.2049332,0.7753906,0.4019165c0.3333969,0.3590469,0.4188004,1.1094742-0.0400391,1.7948608
		c-0.4182129,0.4656982-1.1359863,0.7176514-1.765625,0.5512695c-0.3211823-0.0836868-0.4468994,0.3993263-0.1269531,0.4833984
		c0.0009766,0.0004883,0.0019531,0.0004883,0.0029297,0.0009766c0.0480957,0.0126953,0.0791016,0.0418091,0.1246338,0.057312
		c-0.374527,0.0936279-0.2958603,0.454483-0.0631104,0.5066528c0.8510895,0.1892929,1.3744125,1.322216,0.6040039,2.095089
		c-0.2246094,0.1268921-0.4873047,0.2183228-0.8110352,0.2344971c-0.1623611,0.0076141-0.3057785,0.1810379-0.1959229,0.3710938
		c-0.0012207,0.0112305-0.0114746,0.0186768-0.0111084,0.0302734c0.0048828,0.1342773,0.1142578,0.2407227,0.2490234,0.2416992
		c0.1367188,0.0006714,0.2661133,0.0632324,0.3864746,0.1519775c0.3399811,0.4419861,0.2805634,1.1045685-0.0290527,1.4901123
		c-0.4202881,0.519104-1.1154785,0.7697144-1.7884521,0.9141846C97.4583893,69.4166489,95.6718063,69.3416748,92.649704,69.0089188z
		 M103.7900848,58.9085808c-1.0227661-0.3544426-3.212204-0.5758667-4.2860107-0.6619263
		c0.0014648-0.010498,0.0115967-0.0169067,0.0118408-0.027771c0.0007324-0.0578613,0.0050049-0.116272,0.0058594-0.1741333
		c1.0534668-1.241394,2.1071777-2.4827881,3.1580811-3.7267456c1.4901123-1.75,6.8901367-7.1499634,2.6000977-8.4500122
		c-0.6297607-0.1916504-1.3858643-0.1486206-2.0765381,0.072876c1.3470459-0.8825073,2.4174805-2.076355,2.9765625-3.4671021
		c1.3191376-3.2711563-1.1480408-5.4665565-3.4013672-4.902832c-1.3867188,0.3466797-2.2050781,1.5849609-2.5009766,3.7851562
		c-0.2490234,1.8251953-0.4619141,3.6601562-0.6376953,5.4985352c-0.7074203,0.1406097-1.4068909,0.1929588-2.0058594,0.1699219
		c-0.2080078-2.1196289-0.7138672-4.2148438-1.5185547-6.2192383c-0.7089844-1.7729492-2.1894531-3.5786133-4.2148438-3.3452148
		c-1.0488281,0.1201172-2.0195312,0.8608398-2.4150391,1.8432617c-1.1335526,2.8050232,1.9972534,7.7531166,7.6894531,8.1967773
		c0.1203613,1.5228271,0.0808105,3.055481-0.1099854,4.5733643c-1.697876,1.9023438-3.6685791,4.111084-5.840332,6.5459595
		c-1.2929077,0.1930923-1.0017395,0.1309586-1.3868408,0.2156982c0.7468033-8.3824997-8.378212-14.3831978-8.5603027-22.4341431
		c-0.1663666-6.8958759,6.7397537-14.0308895,15.71875-14.3896484c10.6181717-0.4285374,18.6476364,8.6857014,16.1015625,17.9370117
		c-1.2405701,4.5093269-4.5127258,7.6514359-6.9951172,12.4541016
		C104.3566971,55.7806282,104.7496414,54.2904587,103.7900848,58.9085808z M99.990036,48.7970085
		c0.041748-0.5078125,0.0645752-1.0160522,0.1118164-1.5234375c0.6450195-0.1506958,1.2663574-0.3706055,1.8564453-0.6408691
		C101.7332153,46.8337708,101.8755951,46.6857643,99.990036,48.7970085z M100.1536102,46.7369499
		c0.1728516-1.7763672,0.3789062-3.5498047,0.6201172-5.3139648c0.233757-1.7372932,0.9117203-3.4326172,2.6660156-3.4326172
		c1.8624878,0,3.2959976,1.7707672,2.2763672,4.2963867C104.8665009,44.4005241,102.6721649,46.0850945,100.1536102,46.7369499z
		 M97.1291962,46.9937859c-5.1827621-0.4675293-8.2013779-4.9765358-7.1806641-7.503418
		c0.3507538-0.8685951,1.2563171-1.5507812,2.3046875-1.5507812C95.4547806,37.9395866,96.8018951,43.7903748,97.1291962,46.9937859
		z M42.5298882,54.7262077c2.296814,1.008606,4.7469482,1.5219727,7.1266479,2.0205078
		c3.3539162,0.6794624,6.5770836,1.4102173,10.3381348,1.4311523c1.3498573,0.1326637,2.155098,0.0320015,2.9718628-0.1668091
		c2.7755623,2.6110306,3.6564674,5.3983078,4.1232338,8.7137413c-0.0297852,0.0511475-0.0464478,0.111145-0.0338135,0.1737671
		c2.0438614,10.0395279-2.9592514,18.0789261-10.1964149,19.9857788c-0.0147705-0.0027466-0.024353-0.0165405-0.039917-0.0165405
		c-0.0535278,0-0.0965576,0.0280762-0.1373291,0.0568848c-0.2893677,0.0720215-0.5774536,0.1462402-0.8782959,0.1999512
		c-0.3201942,0.0575943-0.2447777,0.5476379,0.0878906,0.4921875c0.2338867-0.041748,0.4556274-0.1028442,0.6828003-0.1553345
		c0.0230713,1.1678467,0.1522827,3.0454102,0.2879639,4.8409424c-2.0272102-0.6002731-5.8099518-0.5772247-9.2489014,0.7739258
		c-0.0244179-1.2556152-0.0301247-1.6035538-0.1036987-5.8027954c-0.0039253-0.1857986-0.2464485-0.341156-0.4215088-0.1729126
		c-5.818821,0.5625-11.5988045-2.7909927-14.098999-8.1547241c-3.3173828-7.1186523-2.21875-17.8359337,4.2158203-21.5234337
		c0.153389-0.0872955,0.1945763-0.3374901-0.0291138-0.4359131C38.8764877,55.7632637,40.5143509,55.136425,42.5298882,54.7262077z
		 M23.1780205,80.1729813c-3.0556641-1.4697266-4.9140625-5.1030273-4.3222656-8.4511719
		c0.6005859-3.3510742,3.6005859-6.1259766,6.9785156-6.4550781c1.7802734-0.175293,4.0585938,0.4584961,4.8574219,2.2719727
		c0.0310059,0.0706787,0.0921631,0.1117554,0.1608276,0.1315308c-0.4514771,3.6703491,0.0483398,7.5847168,1.4251709,10.8623047
		C29.7451191,81.1551895,25.7874355,81.4509201,23.1780205,80.1729813z M26.1565361,115.2779617
		c1.5447464-4.5192871,2.0090637-5.1243515,5.4287109-8.8623047c3.2775421-3.6237183,8.4649277-4.3381958,13.21875-4.769043
		c0.5649757-0.0185318,1.7828445-0.3761826,8.1854858-0.0654907c-1.5476074,1.7457886-2.9836426,3.3676147-4.2878418,4.8427734
		c-2.4543915-1.0647736-4.9975166-1.2280884-7.4152222-0.0092163c-2.3937569,1.2134171-3.8412094,3.2647858-5.7519531,4.9355469
		c-9.2899837,8.1685028-3.6862316,3.2338028-11.2112427,9.8481445
		C25.1895142,117.9212265,25.9512215,115.9028244,26.1565361,115.2779617z"/></svg>