<svg xmlns="http://www.w3.org/2000/svg" enable-background="new 0 0 156 156" viewBox="0 0 156 156"><path d="M139.8166046,98.4778137c-1.2041016-2.1708984-2.3886719-3.5878906-2.4384766-3.6474609
		c-0.0397949-0.0467529-0.0963135-0.0681152-0.1558228-0.0770264c-0.7923584-1.4574127-1.8048096-2.0061111-3.4174194-2.7344971
		c-7.6585693-3.5092621-15.6028671-6.1043854-23.3369217-9.3720703c-3.3811646-1.4252243-4.6197281-1.2959976-7.8355713,1.1038818
		c-0.7703857-0.2926025-1.647522-0.446167-2.5563965-0.5445557c-0.0234604-0.1791611-0.0486984-0.4146652-0.1113281-0.7348633
		c2.5715027-11.1309967-0.3758545-22.5850029-3.1572876-33.4985352c0.3767548-1.9262009,0.4497223-4.2998848-0.9365845-5.6859131
		c-0.1642456-0.1643066-0.383606-0.2966309-0.6004028-0.3360596c-0.6464081-2.4357491-0.6051559-2.8978806-1.1838989-3.206543
		c-1.254425-8.4606628-3.9923782-12.9478416-6.7103271-18.6345234c-0.5183563-1.0876923-1.7745285-1.2203979-2.2119141,0.0986328
		c-0.2109375-0.2373047-0.4443359-0.4589844-0.7373047-0.6132812c-0.4423828-0.2304688-1.1181641-0.2910156-1.5625,0.125
		c-0.0048599,0.0050926-0.1676178,0.1749783-0.1728516,0.1796875c-0.0244141-0.0097656-0.0791016-0.0644531-0.1279297-0.1142578
		c-1.1263123-1.2096558-2.8087997-0.7495728-3.0332031,0.4804688c-0.3940811-0.0727921-0.7462234-0.292038-1.2119141-0.328125
		c-2.1182098-0.1716671-2.1026382,2.0380135-1.0751953,3.8720703l3.8994141,6.875
		c-1.1325531,0.1015739-2.2572708-2.7687359-3.8193359-2.0234375c-1.4268494,0.6800308-1.6682281,4.6553364,2.1652832,8.977663
		c-0.147583,0.28479-0.2765503,0.5788574-0.3679199,0.8876953c-0.9099731-2.3000488-3.4299927-3.8300781-5.8899536-3.5800781
		c-2.4500122,0.25-4.6100464,2.2800293-5.0300293,4.7099609c-1.1090088-2.8956757-11.3243217,0.903038-10.1099854,9.5500488
		c-1.5300293-0.5100098-3.2399902,0.4400635-4.0800171,1.8100586c-1.4008446,2.2847939-1.1818275,6.1181335-0.3977051,8.7380371
		c-1.2071533,1.4407959-1.9202271,3.305542-1.81604,5.18396c0.0001221,0.0023193,0.0008545,0.0045166,0.0009766,0.0068359
		c-1.0218506-1.0106201-2.0223389-2.0717773-2.9814453-3.1784668c2.8405113-7.5674629,1.9953346-14.0983276-0.8515625-18.7697754
		c-4.5666733-7.5122948-14.0584221-8.2198219-22.6572266-8.8095703c-4.2138672-0.2851562-6.9472656,0.2451172-8.3603516,1.6191406
		c-1.7092094,1.64468-1.3559027,3.3031311-3.1953115,20.1630859c-0.0193195,0.2039185,0.1915417,0.3379898,0.3671875,0.2470703
		c3.6767569-1.9707031,8.6621084-1.2158203,11.593749,1.7558594c8.2327156,8.3494568-5.1595745,21.9189682-7.9257812,33.2441406
		c-2.0185537,8.2666016,1.2285156,19.9443359,7.0917969,25.5009766
		c11.1036568,10.5270538,24.3217125,11.1468048,24.2216797,11.1191406c0.3147621,0,0.3389549-0.4656677,0.0253906-0.4990234
		c-8.9111328-0.9179688-17.4003906-4.8183594-23.9033203-10.9833984
		c-5.7490234-5.4482422-8.9316406-16.9052734-6.9492188-25.0185547c2.759079-11.3028793,16.3583565-25.0304337,7.7949219-33.7148438
		c-2.9726562-3.0126953-7.9550781-3.8544922-11.7714834-2.0537109c1.8075075-16.6222076,1.4689331-17.9294281,2.9990225-19.4023438
		c1.8592548-1.8087044,5.974081-1.6142998,8.4189453-1.4492188c7.7324219,0.5302734,17.3544922,1.1904297,21.8222656,8.5410156
		c2.728817,4.4781494,3.5842209,10.7766075,0.901001,18.0838623c-0.4022446-0.45504-0.825386-0.7622299-1.4328613-0.6737061
		c0.0326576-2.3786201-0.044178-4.3389473-1.0189209-7.046875c-1.4236794-3.9080772-4.3132629-5.8442116-5.5976562-5.0917969
		c-1.5148087,0.8483582,0.2124634,3.4402504-0.5253906,4.2939453c-1.1445312-2.3779297-2.28125-4.7558594-3.4179688-7.1347656
		c-0.2919922-0.6015625-1.2998047-2.1748047-2.4375-2.2236328c-0.5195312,0.0029297-0.9853516,0.2783203-1.3525391,0.8964844
		c-0.2301254,0.3962326-0.2576981,0.8199501-0.421875,1.1796875c-1.1229191-0.5245781-2.4777813,0.5405426-2.1230469,2.2333984
		c0.0078125,0.0439453,0.0205078,0.1162109,0.0175781,0.1337891c-0.0214844,0.0166016-0.1074219,0.0292969-0.1591797,0.0371094
		l-0.1035156,0.0175781c-0.5849609,0.1337891-0.9150391,0.7050781-0.9824219,1.2167969
		c-0.0371094,0.3300781,0.0126953,0.65625,0.0849609,0.9550781c-1.3429775-0.3783531-1.9444103,0.7075195-1.3535156,1.7568359
		c3.1560211,5.5181961,5.2173653,10.2874146,11.4604492,16.145752c-0.0919189,0.6560669,0.1095657,0.6301956,3.7541504,4.8913574
		c-2.1445122,4.6608505-4.2638321,13.6435013-0.5795288,17.1955566c-2.7928467,3.0067139-5.3615723,6.3798828-6.2487183,10.4532471
		c-0.1051636,0.4875488-0.1777954,0.9929199-0.0706787,1.4735107c-0.0972099,1.2661514,0.2035179,1.6896591,1.8425293,5.6501465
		c2.4106522,5.8393326,3.2626419,8.4986954,5.1174927,9.9929199c1.4248619,2.56884,1.5322647,2.7200089,2.3786011,4.536377
		c1.3452644,2.8884583,2.4493294,4.8987732,5.7421875,5.5097656c3.556839,0.6777802,9.139595-0.4282532,34.2109375,4.6640625
		c10.9393997,2.2227783,22.8596954,7.4925537,33.7197266,2.3330078
		c14.4668045-6.8515625,19.2704849-17.7294922,22.4492264-24.9267578l0.0361328-0.0830078v0.0009766
		C143.3166046,106.4563293,141.5949249,101.7082825,139.8166046,98.4778137z M103.3292923,83.8479309
		c2.7796478-2.0583344,4.0037842-1.9779358,6.9443359-0.7402344c7.7352219,3.2673035,15.6904678,5.8683929,23.3242264,9.3662109
		c1.4745636,0.6655579,2.5808258,1.2383957,3.2900391,2.690918c-0.4973755,2.3703613-1.3997192,4.8503418-2.7011719,7.3813477
		c-3.2809601,6.4012527-7.6084518,10.9056168-12.0888748,15.3994141c-5.172821,5.20755-7.0110168,6.086113-14.7304688,5.1054688
		c-1.9190369-0.2394714,0.324707,0.035408-23.7280884-2.9609375c-1.2652664-2.4076691-1.3523407-5.1746521-0.7543335-7.8388672
		c0.6621094-2.9648438,2.2109375-5.734375,3.7402344-8.3164062C90.8309555,96.8448715,96.417717,88.7337036,103.3292923,83.8479309z
		 M94.7910233,43.0940247c-0.4658203,0.3908691-0.6824341,1.0256348-1.2102051,1.40271
		c-1.0611343,0.7490234-2.6363373,0.8217468-3.9099731-0.2700195c0.1515503-1.1304932,0.2539673-2.2884521,0.1359863-3.399292
		c1.118042-0.2282715,2.2380371-0.4533691,3.3574219-0.6582031C94.3645859,39.946106,93.9983826,40.4529152,94.7910233,43.0940247z
		 M77.5392532,30.1125774c1.128479-0.540514,2.2213745,2.2306728,3.6714478,2.0588398
		c0.0568237,0.0793457,0.1418457,0.1335449,0.2474976,0.104248c0.6760864-0.150631,1.8491898,1.2658653,2.0966797,2.4951172
		c0.0669632,0.3240852,0.5555573,0.2246857,0.4902344-0.0996094c-0.2521515-1.2509155-1.3275986-2.7089825-2.3065796-2.8830585
		c-0.0277405-0.1700344-1.4072113-2.5172558-4.0596313-7.2233887c-0.7718735-1.3794765-1.0966034-3.2327423,0.6025391-3.1289062
		c0.3676071,0.0291176,0.7945633,0.288229,1.3534546,0.3334961c2.4289169,4.2080688,2.2162247,5.1069336,2.6572876,5.1069336
		c0.1753464,0,0.2983627-0.1783543,0.2314453-0.34375c-0.7105103-1.7506104-1.5518799-3.4619141-2.4979858-5.0914307
		c0.0633621-0.879549,1.2706604-1.2810135,2.1991577-0.2874756c0.0281372,0.0284424,0.0673828,0.0594482,0.1027222,0.090332
		c0.1019211,0.667141,0.6745148,0.4354954,1.930481,6.3129883c0.0674744,0.3265877,0.5586395,0.2201424,0.4882812-0.1035156
		c-0.4396362-2.0627441-0.9060669-4.1887207-1.8648071-6.1280518c0.1203003-0.0567627,0.2208252-0.1312256,0.2896118-0.2030029
		l0.0409927-0.0429688c0.2509995-0.2353516,0.6845932-0.1972656,0.9824448-0.0410156
		c0.4995193,0.2615833,0.8078461,0.8256264,0.980957,0.9182129c0.0832977,0.3820438,1.2637711,2.182169,1.9682617,5.5837402
		c0.0673752,0.3260803,0.5561905,0.2235146,0.4902344-0.1015625c-0.4082031-1.9677734-1.0839844-3.8691406-2.0097656-5.6503906
		c-0.0153198-0.0302734-0.0473022-0.0400391-0.0717163-0.0605469c0.2459717-1.2450352,0.9911194-1.1996574,1.3724976-0.4033203
		c2.8395081,5.947422,5.3680725,10.0189972,6.6345215,18.2959003c-0.368515,0.001461-2.5975266,0.4611053-3.8243408,0.7116699
		c-0.8488083-4.9329796-7.1450577-6.5119629-9.9823608-2.1425781
		C76.0447235,33.9291191,76.6624222,30.5297108,77.5392532,30.1125774z M80.7908401,40.7066956
		c0.2377625-0.2377663,0.5832748,0.102787,0.3699951,0.3400879c-2.4719925,2.6481934-2.7391663,5.6873322-2.7700195,5.789917
		c-0.0654984,0.2622528-0.4221954,0.2615089-0.4799805,0.0300293c-0.0200195-0.039917-0.0300293-0.0799561-0.0200195-0.1199951
		C78.2285919,44.5228653,79.2326736,42.3908997,80.7908401,40.7066956z M68.6207962,41.85672
		c0.1459885-0.3163261,0.5981598-0.0864906,0.460022,0.1900635c-0.7999878,1.9299316-0.6199951,4.2399902,0.4799805,6.0200195
		c0.0599976,0.1098633,0.0400391,0.2600098-0.0599976,0.3299561c0.210022-0.0699463,0.4200439-0.1300049,0.6300049-0.1800537
		l-0.5,0.2199707c2.3200073-0.7299805,4.7900391-0.7800293,7.2200317-0.7199707
		c2.2699585,0.0600586,4.2299805,0.4699707,6.4099731,1.0700684c2.0200195,0.5599365,2.8699951,1.9399414,3.8200073,3.7700195
		c0.7700195,1.5,1.75,3.1298828,3.3699951,3.5899658c0.0300293,0.0098877,0.0700073,0.0198975,0.1000366,0.0198975
		c0.4299927,1.1501465,0.7599487,2.3601074,0.9799805,3.5900879c-0.0001831-0.0234375-0.0024414-0.0469971-0.0026855-0.0704346
		c1.3806305,7.8136444-2.7497559,13.7187881-7.9488525,15.4711914c-4.109375,1.3886719-7.4111328,1.7988281-10.3818359,1.296875
		c-6.4300766-1.0871201-11.0249062-6.0230179-12.9431152-12.0258789c0.1463013,0.0063477,0.2676392-0.0810547,0.2950439-0.291748
		c0.7851562-5.946167,3.9320068-12.1435547,8.6202393-15.6400146h0.0012207
		c0.039978-0.0100098,0.0999756-0.0300293,0.1399536-0.0500488c-0.0700073,0-0.1399536-0.0499268-0.1799927-0.1099854
		C67.9508133,46.4166565,67.7508011,43.936676,68.6207962,41.85672z M66.5396805,75.5503235
		c0.5516357-0.1051025,1.1119385-0.2668457,1.6746826-0.3088379c0.4366455,0.2369385,0.8843994,0.451416,1.3417358,0.6466064
		c-0.1884766,0.2210693-0.3796387,0.4552002-0.5753784,0.7075195
		C68.1461945,76.2636795,67.3516159,75.9096527,66.5396805,75.5503235z M58.7013626,58.6809387
		c0.0292969,0,0.0517578-0.0058594,0.0878906,0.0009766c0.0272217,0,0.0455933-0.0206299,0.0701904-0.0288086
		c0.0458374,0.6860352,0.1021729,1.3439941,0.1678467,1.956543c0.2184448,3.9907227,2.135376,7.8078613,4.2483521,10.470459
		c-1.6394043,1.1680908-3.6981812,1.6264648-5.5635567,1.2111816c-2.9228325-0.6494141-5.2509575-3.3916016-5.41502-6.3798828
		C52.0901794,62.1862106,55.2307243,58.6809387,58.7013626,58.6809387z M28.0490189,52.6448059
		c-0.1767578-0.3154297-0.2353516-0.7626953,0.0087891-0.9716797c0.2597656-0.2349854,0.7425537-0.0869141,1.1123047,0.0654297
		c0.0021362,0.0338135-0.0078125,0.067627,0.0087891,0.0996094c0.9326172,1.7783203,2.1064453,3.4199219,3.4882812,4.8789062
		c0.2232361,0.2366295,0.591671-0.1012344,0.3632812-0.34375c-1.3505859-1.4257812-2.4970703-3.0292969-3.4082031-4.7675781
		c-0.0089111-0.0168457-0.0288086-0.0200195-0.0407715-0.0341797c0.0246964-0.1685066-0.2666473-0.7537384-0.2023926-1.3320312
		c0.0429688-0.3242188,0.2480469-0.7099609,0.5898438-0.7880859c0.1520157-0.0266075,0.2719517-0.0388641,0.4052124-0.1142578
		c1.045105,1.8898926,2.5169067,3.4829102,3.9541626,5.0175781c0.2281914,0.2416115,0.5908203-0.1022606,0.3652344-0.3417969
		c-4.1350651-4.4142075-3.5848656-4.7249451-4.078186-5.1921387c-0.0054321-0.0588379-0.0098877-0.1179199-0.0204468-0.1760254
		c-0.2699757-1.2806625,0.7639503-2.0631905,1.4997559-1.597168c0.7952271,1.7067871,1.7191162,3.3754883,2.748291,4.9575195
		c0.181427,0.2721367,0.6004372,0.0055351,0.4199219-0.2734375c-1.0019531-1.5375977-1.8983154-3.159668-2.6764526-4.8189697
		c0.2654648-0.4433861,0.3167-0.9839821,0.4996948-1.2982178c0.2685547-0.4511719,0.5634766-0.6777344,0.9013672-0.6503906
		c0.75,0.03125,1.6259766,1.1542969,2.0078125,1.9404297c3.8491173,8.0614777,3.5204277,7.3850975,3.62323,7.4743652
		c-0.6012802,1.2964439,0.7833023,3.6027832,1.2146606,3.6027832c0.2190819,0,0.332634-0.264679,0.1806641-0.4228516
		c-0.6181641-0.6464844-0.9970703-1.5302734-1.0400391-2.4248047c-0.0175781-0.3515625,0.046875-0.5947266,0.1914062-0.7207031
		c0.0758667-0.065918,0.0838013-0.1630859,0.0578613-0.2532959c0.9776649-1.0926971-0.6884727-3.580677,0.4138184-4.197876
		c0.8205872-0.4768867,3.4565048,0.9234009,4.8789062,4.8291016c0.9617691,2.6698608,1.0062981,4.5140724,0.9874268,7.0397949
		c-0.8594704,0.4384422-6.9385872,6.3167572-7.2218018,6.7087402
		C33.1913834,62.7783699,31.2009296,58.1558151,28.0490189,52.6448059z M39.957222,68.5344543
		c1.9072266-1.8974609,3.9560547-3.8320312,6.0917969-5.7519531c1.011631-0.9161453,1.4427528-0.7942085,2.1611328,0.0566406
		c1.1827393,1.3823242,2.4308472,2.7056885,3.708252,3.9372559c0.5227051,2.864502,2.8283081,5.3684082,5.6853027,6.0031738
		c1.0113907,0.2251968,1.6143532,0.1553192,2.1550903,0.1069336c0.0632324,0.0357666,0.1278687,0.0673828,0.1912231,0.1027832
		c1.4571419,1.589035,3.5078888,2.6983719,5.5913696,2.6669922c1.912796,0.8475647,3.7531357,1.6991882,5.5828247,2.201416
		c0.3283615,0.0856552,0.4445877-0.3953094,0.1328125-0.4824219c-0.6037598-0.1657715-1.1972046-0.3736572-1.7856445-0.5957031
		c0.1937866-0.2456055,0.3839111-0.4768066,0.5708618-0.6920166c4.5820999,1.7777481,8.9539871,1.1444016,13.6972046-0.4554443
		c6.2729721-2.1180573,10.5682907-9.7895279,7.6582031-18.5322266c-0.0036621-0.0107422-0.0159302-0.013916-0.020874-0.0239258
		c-0.0258789-0.2697754-0.043457-0.5402832-0.0759277-0.8092041c3.1665802,0,4.5377426-3.1348648,5.2692261-6.2022705
		c2.6067505,10.2126465,5.4995728,21.7492676,2.8148804,32.7268066c-0.0305786,0.1279297,0.0460205,0.25,0.1678467,0.2911377
		c0.1058578,0.8349457,0.2282791,1.6718063,0.3101196,2.93396c-5.9833374,5.3293457-10.446228,12.2333984-13.6674194,17.6635742
		c-1.7263641,2.9124298-3.2552948,5.6939621-3.885498,8.9240723c-0.0480347,0.0817871-0.0743408,0.1665039-0.0822754,0.2243652
		l-0.0419922,0.0683594c-0.3992386-0.0081482-0.9494019-0.2548981-1.40625-0.3349609
		c-2.3480148-0.4722519-4.5138245-0.3970413-7.7583008-0.5698242c-0.1674805-0.2373047-0.3232422-0.4758301-0.4594727-0.7319336
		c-2.4545898-4.6374512-5.2120972-9.8757324-6.6204224-15.3365479c2.2541275,1.302948,5.0884933,2.5533447,5.3391724,2.5533447
		c0.2755814,0,0.3472595-0.3816071,0.0908203-0.4833984c-12.4163742-4.8146439-21.3484802-16.5048447-31.453125-28.2021484
		C39.4386253,69.2446671,39.4279022,69.0373077,39.957222,68.5344543z M43.1906815,74.3468323
		c7.6149864,8.8105469,5.5757942,6.3828964,7.0543213,8.0582275c-2.4907532,2.3850174-3.9802437,4.4667358-7.630249,8.3300781
		C39.1453209,87.3932495,41.245224,78.6947632,43.1906815,74.3468323z M36.5060501,104.2102356
		c-0.0479126-0.2661896-0.1176071-0.9392471-0.0644531-1.2480469c1.4111328,0.3535156,2.2666016,1.5488281,3.0957031,2.7050781
		c1.6027489,2.2371674,2.3719063,2.4917374,5.4013672,3.2617188c3.2421875,0.8330078,6.5722656,1.4072266,9.8994141,1.7070312
		c6.7577324,0.6034622,14.1918945,1.8318863,20.8759766,1.9707031c5.206459,0.1383896,5.5988007,0.7630157,6.4542847,0.7883301
		c-0.3543701,2.4639893-0.0529785,4.6826172,0.8824463,6.621582c-44.9316521-5.6055145-42.0314484-5.344429-42.125061-5.0461426
		C40.5867615,114.2196503,36.6664162,104.7642136,36.5060501,104.2102356z M41.6105423,115.3528137
		c8.2830238,1.0377808,62.1522827,7.7492371,64.8789062,8.0917969c9.5585556,1.2129059,10.6019592,0.0982208,16.9169922-6.0976562
		c5.997963-5.875618,12.0859909-13.5910873,13.9150467-21.7822266c0.9569702,1.2524109,1.9223938,2.785614,2.6795044,4.362793
		c0.6433716,2.3757324,0.7826538,4.9864502-0.2946167,7.4273682c-3.15271,7.1156006-7.9359131,18.0557861-22.3647537,24.8946533
		c-10.7623291,5.0993652-22.7402344-0.1582031-33.5618286-2.3520508
		c-32.1398392-6.5189438-33.5114555-2.9886703-37.0900879-5.9296875c-0.4244385-0.3491211-0.7681885-0.7595215-1.0861206-1.1936035
		C44.6314087,120.6910782,44.9451561,121.4353027,41.6105423,115.3528137z"/><path d="M126.101326,124.2219543c2.8583755,0.8504715,1.9471054-3.4515839,0.6950073-4.9914551
		c-0.9755859-1.199707-2.6965942-1.6560059-3.4935303-0.1038818c-0.4711304,0.9176025-0.5612183,1.8597412-0.0379028,2.7720947
		C123.8130569,122.8545227,125.0500565,123.9092102,126.101326,124.2219543z"/><path d="M136.5457306,110.5801086c2.6646271,0.760376,1.7733459-3.2271881,0.5938721-4.6447754
		c-0.9188232-1.1044922-2.522522-1.5106201-3.2468262-0.0603027c-0.4282227,0.8574219-0.5021362,1.7336426-0.0064697,2.5759277
		C134.4055939,109.3332825,135.5657501,110.3003235,136.5457306,110.5801086z"/><path d="M79.8683548,62.32547c0.3710938,0.9755859,0.6650391,1.7451172,0.0712891,2.5185547
		c-0.4735565,0.6212692-1.0338669,0.7892151-1.6787109,1.2519531c-0.267807,0.1909561,0.0203629,0.5987167,0.2910156,0.40625
		c0.6432419-0.4603653,1.2376099-0.6376038,1.7851334-1.3544922c0.8749313-1.1404114,0.261795-2.2424812-0.1923599-3.5126953
		c-1.1473083-3.2484474-0.9511566-2.8544731-2.1191406-6.1601562c-0.1101379-0.314003-0.5804291-0.1444817-0.4707031,0.1660156
		C78.4491806,58.1730003,79.3549652,60.9845276,79.8683548,62.32547z"/><path d="M68.1624222,56.7622375c0.0784683,0.5320663,0.4681778,0.8473053,1.1234131,0.5366211
		c0.8215561-0.3899612,1.8642578-1.5379753,2.1965942-2.3742676c0.2521362-0.6345215-0.0480957-1.253418-0.8129883-0.9165039
		c-0.6600723,0.2909203-1.0969315,0.7230492-1.552002,1.114624C68.6127396,55.5571594,68.0573807,56.0503235,68.1624222,56.7622375z
		"/><path d="M70.8679886,60.1094055c0.3545532,1.5037842,1.4055176,2.5427246,2.3474121,2.3208008
		c0.9418945-0.222168,1.4180298-1.6212158,1.0635376-3.125c-0.3545532-1.5036621-1.4055176-2.5427246-2.3474121-2.3205566
		C70.9895706,57.2066956,70.5134354,58.6057434,70.8679886,60.1094055z"/><path d="M82.271431,52.514679c0.545105,0.2131348,1.1166382,0.394165,1.7018433,0.3824463
		c0.7286835-0.0146179,0.9300385-0.4793892,0.7653198-0.9820557c-0.223999-0.6837158-0.9412231-0.8769531-1.586792-1.0400391
		c-0.6020813-0.1525764-1.1682587-0.3386917-1.8864746-0.3039551C80.2898102,50.618145,80.1661682,51.6921425,82.271431,52.514679z"/><path d="M82.7497025,59.2433167c0.9418945-0.2220459,1.4180908-1.6210938,1.0635376-3.1248779
		c-0.3545532-1.5036621-1.4055176-2.5427246-2.3474121-2.3205566c-0.9418945,0.2219238-1.4180908,1.6210938-1.0635376,3.1247559
		C80.7568436,58.4264221,81.8078079,59.4653625,82.7497025,59.2433167z"/><path d="M73.7394485,67.5666809c-0.8415146,1.4776611,1.7180023,4.4152222,3.625,3.6396484
		c0.5292969-0.2138672,0.8964844-0.7285156,0.8945312-1.2529297C78.2475967,68.3993912,74.7560577,65.7731857,73.7394485,67.5666809
		z M75.7005692,67.6974182c0.3376541,0.5737915,1.1451874,1.5428772,1.0482178,2.1158447
		c-0.0614243,0.3626785-0.4430695,0.701622-1.2781982,0.5661621C73.5536728,69.1427002,73.6452179,66.6414261,75.7005692,67.6974182
		z"/><path d="M55.1339798,67.2024231c0.0025368-0.6770859,0.8982086-1.5582047,1.5612793-1.8624268
		c0.2126656,0.2884064,0.6590614,0.5739899,1.1779785,1.5528564c0.0576172,0.1083984,0.1142578,0.2236328,0.125,0.3320312
		c0.0395889,0.3738861-0.4113235,0.8247528-0.8037109,0.9863281c-0.3032036,0.1249847-0.1196785,0.5884705,0.1894531,0.4628906
		c0.5922127-0.2427139,1.1751595-0.8835526,1.1123047-1.5c-0.0595322-0.5726471-0.8424644-1.5472565-1.2982788-2.0024414
		c0.4157715-0.0805664,0.8363037-0.0354004,1.1791382,0.1352539c0.2964783,0.147049,0.5184631-0.3005295,0.2226562-0.4472656
		c-1.7893143-0.8931389-3.9632187,1.0316772-3.9658203,2.3408203C54.6339798,67.5354462,55.1339798,67.53302,55.1339798,67.2024231z
		"/><path d="M119.8047562,25.5633831c-0.9488678-0.3678379-1.8911285-0.0728359-2.4972534,1.1627197l3.3701172,1.3057861
		C121.1492615,26.6702995,120.6709442,25.8983288,119.8047562,25.5633831z"/><path d="M127.1840286,39.9317932c-1.0022507-0.3841095-2.0907593-0.0036316-2.7058716,1.6000977
		c-0.6218643,1.6217194-0.0503845,2.6318855,0.9371948,3.0102539c1.0140457,0.3892212,2.0998688,0.0129509,2.721199-1.6066895
		C128.7600708,41.3103752,128.1836548,40.3155975,127.1840286,39.9317932z"/><path d="M120.7395706,34.61026c-1.9733429-0.7576752-3.4170609,0.4451675-4.1787109,2.4265137
		c-0.7591782,1.9815979-0.4891281,3.8555145,1.4794312,4.6103516c1.9968567,0.7657547,3.4326172-0.4422455,4.1954346-2.4335938
		C123.0041046,37.2103615,122.7341385,35.374733,120.7395706,34.61026z"/><path d="M107.7343826,18.6764202c-3.6096191,0.6304932-7.3570557,2.0379639-9.4370117,5.0489502
		c-2.9342728,4.2065201-2.2867813,11.5489178,4.7947998,17.0098896c-0.5040588,2.8115692-1.0708389,3.4873581-1.0512695,4.5500488
		c0.0083618,0.621582,0.2998047,1.2834473,0.8778076,1.5439453c0.713562,0.3200684,1.5139771-0.0952148,2.1634521-0.5053711
		c1.0993042-0.697998,2.1674805-1.4643555,3.1932983-2.2822266c6.3111572,3.3171387,13.6219482,5.1833496,20.575264,3.6960449
		c5.4464722-1.1660156,10.8721313-5.1560059,11.324646-10.706665
		C141.3620148,22.1217327,118.7683792,16.7528362,107.7343826,18.6764202z M122.3379593,30.0914593l1.1564941-2.9855957
		c-0.7220306-0.3004227-0.893631-0.2943611-0.9868774-0.4641113c-0.0740814-0.1316452-0.0077057-0.339323,0.1520996-0.392334
		c0.1824799-0.0623741,0.310463,0.059454,1.0420532,0.3222656c0.5316467-1.3029938,0.5168381-1.5048904,0.7121582-1.5849609
		c0.1468887-0.0615807,0.4014282,0.021246,0.4805298,0.1862793c0.0905457,0.1944427-0.0642776,0.3490143-0.5413818,1.6513672
		c1.3398819,0.5418777,1.5558777,0.5433655,1.638855,0.7163086c0.0789642,0.1648769-0.0483475,0.5141926-0.4042969,0.3757324
		l-1.4417114-0.5584717l-1.1229858,2.8984375c-0.3274765,0.8464775-0.2310028,1.4774399,0.6255493,1.8089619
		c0.3285065,0.127533,0.4561539,0.0644035,0.6365356,0.1341553c0.2488708,0.0949516,0.065094,0.6019287-0.1942749,0.5638428
		c-0.0888672-0.0009766-0.206665-0.0152588-0.3516235-0.0422363
		C122.5304947,32.4951553,121.7610474,31.581377,122.3379593,30.0914593z M116.4967728,26.8382854
		c0.6808853-1.7564011,2.1717987-2.3299694,3.5037231-1.8133545c1.4500275,0.563448,1.7702332,1.9309559,1.1933594,3.4197998
		c-0.0792084,0.2055111-0.2350082,0.2609558-0.4174805,0.1894531l-3.6762085-1.4243164
		c-0.4451904,1.2712021-0.1175995,2.2982578,1.1134033,2.7749023c0.6055908,0.2344418,1.1452713,0.2413654,1.6705933,0.0960693
		c0.4487-0.1142693,0.6317749,0.4573269,0.1429443,0.5814209c-0.6319351,0.2120991-1.4062653,0.1190662-2.0072632-0.1132812
		C116.39814,29.9205513,115.850853,28.5058918,116.4967728,26.8382854z M108.4124222,30.8095989
		c-0.4104309-0.825861-1.081131-1.3292637-1.9488525-1.6619873c-2.0441208-0.7839031-3.494339,0.3394718-4.2770996,2.3754883
		c-0.8447876,2.2044811-0.3917542,3.892683,1.7860107,4.7277851c0.733223,0.281208,1.4005127,0.3917961,2.1260986,0.385498
		l1.0129395-2.6408691l-1.7894897-0.6861572c-0.4310074-0.1660385-0.2301788-0.7773895,0.230835-0.6009521l2.0953369,0.8035889
		c0.2144699,0.0826683,0.2683334,0.2478943,0.1923218,0.4453125c-1.2634659,3.2026978-1.1769562,3.3885994-1.5145874,3.4083252
		c-0.6452408,0.0281601-1.7006531-0.1218491-2.612854-0.4716797c-1.5211487-0.5832977-2.5654907-1.6246071-2.6848145-3.2302246
		c-0.1262283-1.6828251,0.8535995-4.1946888,2.5585938-5.0959492c1.939537-1.0238476,4.6201248,0.1905384,5.4068604,1.8417969
		C109.2083588,30.8364754,108.66996,31.2024231,108.4124222,30.8095989z M114.0460892,37.530426
		c-0.6508636,1.6980515-2.031189,2.5483398-3.6499023,1.9268799c-1.6102448-0.6176796-2.0582428-2.1858749-1.413208-3.8690186
		c0.6434097-1.6759911,2.0327835-2.5476837,3.6377563-1.9316406
		C114.257637,34.2846451,114.6854935,35.8642578,114.0460892,37.530426z M114.5930252,29.1210003l-3.9945679-1.5477295
		c-0.1916351-0.0743122-0.28479-0.2508011-0.1963501-0.4771729l2.7270508-7.0397949
		c0.1592712-0.410038,0.5806885-0.2429619,0.6682129-0.0413818c0.0938644,0.2192879,0.0553131,0.0261726-2.6463013,7.0828857
		c3.6646271,1.4474792,3.7946396,1.3978996,3.8850708,1.5927734
		C115.1191483,28.8686695,114.9798431,29.2705078,114.5930252,29.1210003z M122.9760818,39.4842834
		c-0.9082489,2.3732224-2.8023224,3.7226028-5.1835327,2.8103027c-2.3325729-0.8946953-2.8847809-3.1460648-1.9676514-5.5400391
		c0.9527512-2.4825974,2.8716583-3.6712265,5.1630249-2.7912598
		C123.3271179,34.8596992,123.9115372,37.0472565,122.9760818,39.4842834z M128.8388824,43.2047424
		c-0.6443329,1.6809807-2.0174789,2.5539589-3.6492996,1.927002c-1.6105957-0.6174622-2.0591507-2.1858597-1.4137573-3.8691406
		c0.6432953-1.6766129,2.0327225-2.5475388,3.6383057-1.9316406
		C129.0626678,39.9633484,129.4726562,41.5532417,128.8388824,43.2047424z M129.8476715,30.0184612
		c-0.6551666-1.0874271-2.3908386-1.66395-2.8335037-0.5209961c-0.3465118,0.8956757,0.7499542,1.2733326,1.377388,1.7739258
		c0.4195557,0.2880859,0.7027588,0.5836182,0.8478394,0.8861103c0.2998047,0.6292915-0.049408,1.6340485-0.9616089,1.8961182
		c-0.9261856,0.2632675-2.4998016-0.2656937-3.2516556-1.4544678c-0.2212296-0.2997894,0.2200546-0.7098141,0.4589233-0.3607178
		c0.776001,1.1217537,2.656456,1.8683434,3.1029739,0.7131348c0.5604858-1.4430981-3.0137787-1.6375599-2.2231522-3.6809101
		c0.6575089-1.6941414,3.2592392-1.013279,3.9650955,0.4210205
		C130.5352173,30.0246735,130.0917511,30.3792629,129.8476715,30.0184612z"/><path d="M112.3906326,34.2574768c-0.999527-0.3833046-2.0897064-0.0052338-2.7053223,1.6002197
		c-0.6216507,1.6212349-0.0506439,2.6314964,0.9366455,3.0101318c1.0364456,0.3972397,2.111824-0.0166206,2.7218018-1.6066895
		C113.9661331,35.6393318,113.3921814,34.6416512,112.3906326,34.2574768z"/><path d="M35.7608109,80.6966858c0.7855453-2.3776245-0.3981552-3.9999847-2.789978-4.8099365l-4.0100098-1.3299561
		c-0.2846298-0.1068573-0.5832996-0.0101624-0.710022,0.369873c-3.8894939,11.7907181-3.9193935,11.3219147-3.7699585,11.710083
		c0.1541805,0.3340836,0.8608646,0.5347366,1.039978-0.1099854l1.6300049-4.8500977
		c2.0576782,0.7503891,3.1219959,0.8919373,3.8099976,1.5800781c0.7318535,0.7320023,0.6515007,2.0872269,1.0931396,4.3326416
		c-1.8380547-0.9154892-3.8436451-0.091568-4.7461548,1.3864746c-0.1723747,0.2818527,0.2509842,0.5428085,0.4257812,0.2617188
		c0.5751953-0.9404297,1.6513672-1.5410156,2.7539062-1.5410156c1.1961346,0,2.3538246,0.8028107,2.7792969,1.6416016
		c0.1149902,0.2321854,0.462738,0.1543503,0.4736328-0.1005859c0.0653801-1.4992065,1.4242706-2.3471298,2.4287109-1.7919922
		c0.8487625,0.4718246,1.5821419,2.2579346,1.7548828,3.3603516c0.0519714,0.3274231,0.5454636,0.2484665,0.4941406-0.078125
		c-0.1917534-1.2235184-0.9860802-3.1520996-2.0068359-3.7197266c-1.0940094-0.6063614-2.6391983,0.0197678-3.0683594,1.5625
		c-0.0197144-0.024292-0.0460815-0.0427246-0.0664673-0.0664062c-0.6198616-3.4246902-0.5202675-4.7165833-1.4456787-5.4273682
		C33.6763229,83.3604202,35.1255112,82.576088,35.7608109,80.6966858z M27.4508133,80.7767639l1.710022-5.1300049
		l3.3599854,1.1199951c1.8481216,0.6220703,2.7935715,1.7514114,2.1799927,3.5699463
		c-0.2799683,0.8499756-0.75,1.4000244-1.3999634,1.6700439C31.8119354,82.6023102,30.1361504,81.5462036,27.4508133,80.7767639z"/><path d="M28.2208328,42.7967834c0.1341476,0.0575409,0.349371-0.0580635,0.3900146-0.2000732
		c0.0733795-0.1712685,0.0999947,0.072216-2.6200562-5.4499512c-0.1724434-0.3880692-0.7209721-0.1368561-0.539978,0.2698975
		l1.1400146,2.3000488l-5.3029175,2.637085c-0.176403-1.2869949-1.1205711-1.6924973-2.3961182-1.5449219
		c-0.3237991,0.0370026-0.2752361,0.5297165,0.0585938,0.4960938c2.4916878-0.2885857,1.6549473,1.8916779,1.9580078,2.1826172
		c0.1160851,0.1115303,0.299139,0.0637436,0.5488281,0.0351562c0.3515625-0.0390625,0.75-0.0859375,0.9384766,0.0927734
		c0.3163872,0.3076172,0.4287109,0.9023438,0.3759766,1.3359375c-0.0551033,0.5390244-0.2986221,1.0556107-0.5273438,1.5507812
		c-0.1300411,0.27742,0.3179607,0.4981346,0.4697266,0.1748047c0.2421875-0.5234375,0.4931641-1.0654297,0.5546875-1.6699219
		c0.0673828-0.5517578-0.0693359-1.3066406-0.5263672-1.7519531c-0.3470459-0.3292236-0.8631592-0.2836914-1.2886353-0.2338867
		l5.4370728-2.7044678C28.1028538,42.7020531,28.0339584,42.7500267,28.2208328,42.7967834z"/><path d="M31.5008011,100.0067444c0.1892853-0.1578979,0.0497475-0.4366913-0.1699829-0.5100098
		c-0.1469059-0.0490189-0.1891747-0.0074539-4.4799805,0.4099121l0.9500122-4.1398926
		c0.1654568-0.5526505-0.5155582-0.7891235-0.6100464-0.2700195l-1.0299683,4.5400391l-1.9740601,1.7374268
		c-0.2518921-0.6525879-0.619812-1.0900879-1.1016235-1.2885742c-0.8144531-0.3320312-1.6679688,0.0800781-2.40625,0.4931641
		c-0.2871552,0.161087-0.0452194,0.5988922,0.2441406,0.4355469c1.6672344-0.9322205,2.4873676-0.7714233,3.046875,1.2587891
		c0.0737114,0.2718048,0.4545593,0.2270355,0.4892578-0.0332031c0.0449219-0.3408203,0.4121094-0.5253906,0.7363281-0.5537109
		c1.6211853-0.1901932,2.1370049,3.8008652,1.1943359,3.9951172c-0.3141613,0.0660172-0.2359486,0.5464859,0.1015625,0.4902344
		c1.0872421-0.2257309,0.9629898-2.0426331,0.6503906-3.1191406c-0.2350922-0.8866806-0.7828407-1.7648697-1.6993408-1.8552246
		l1.168396-1.0303955C31.4473209,100.0671616,31.3830299,100.1482391,31.5008011,100.0067444z"/><path d="M41.3888626,121.8069153c0.2167816-1.782135-0.7027016-3.7536316-2.1689453-2.6220703
		c-0.555603-1.4694824-2.4134521-2.5991211-3.9719849-2.7752686c0.0186768-0.1165771,0.0411377-0.2293701,0.0529175-0.3527832
		c0.6021347-5.9049301,0.7374496-5.9235535,0.5599976-6.1600342c-0.1570816-0.1794052-0.4977798-0.1767044-0.6400146-0.0699463
		c-0.232975,0.2036514-0.0910606,0.1658173-0.7700195,6.0599365c-0.0200195,0.1867676-0.0548706,0.3513184-0.086731,0.5203857
		c-0.101368,0.0451813-2.1201477,0.2267838-2.7926025,2.5020752c-2.1137257,0.0329971-3.422884-1.155098-3.1306763-3.6724854
		l0.6199951-5.7399902c0.036272-0.5436401-0.5334282-0.5644684-0.7099609-0.4100342
		c-0.2245426,0.1685333-0.1041431,0.2692719-0.7800293,6.1300049c-0.3066673,2.8912888,1.1164608,4.406105,3.8800659,4.5057373
		c0.0187912,0.3815689-0.0249901,0.5474091,0.1420898,1.0795898c0.098999,0.3158493,0.576973,0.164856,0.4765625-0.1503906
		c-0.5109329-1.6361389,0.550808-3.435463,2.3427734-3.7460938c0.0341797-0.0039062,0.0673828-0.0087891,0.0693359-0.0107422
		c1.5912819-0.1880035,4.0305519,1.1481781,4.3642578,2.7919922c0.0411644,0.1993256,0.2859383,0.264946,0.421875,0.1269531
		c0.5929756-0.5945587,1.0667381-0.6729279,1.3720703,0.1181641c0.2392578,0.5820312,0.3261719,1.2089844,0.2529297,1.8144531
		C40.8530502,122.0757904,41.3487587,122.1327515,41.3888626,121.8069153z"/><path d="M24.6417923,22.9397259c-0.3229275,0.0534344-0.2517204,0.5434628,0.0800781,0.4941406
		c10.4267578-1.6816406,21.5839844,2.9501953,27.7607422,11.5195332c0.1892662,0.2611847,0.6011047-0.0196991,0.40625-0.2929688
		C46.6037064,25.941679,35.2521439,21.2297649,24.6417923,22.9397259z"/><path d="M38.6906204,18.5676556c3.6367188,0.4257812,7.140625,2.21875,9.6142578,4.9199219
		c0.222496,0.2399464,0.5927238-0.0931244,0.3691406-0.3378906c-2.5537109-2.7880859-6.171875-4.6386719-9.9248047-5.078125
		C38.4112206,18.0423832,38.3700027,18.5310135,38.6906204,18.5676556z"/><path d="M124.6740189,75.38797c-0.1884766,2.3134766-0.2519531,4.6630859-0.1884766,6.9853516
		c0.0039062,0.1357422,0.1152344,0.2431641,0.25,0.2431641c0.0019531,0,0.0048828,0,0.0068359,0
		c0.5745316-0.016304-0.0861893-0.8403168,0.4296875-7.1875C125.1991272,75.1110229,124.7034607,75.0420609,124.6740189,75.38797z"/><path d="M133.1623077,74.6946106c-2.1582031,3.1914062-4.0917969,6.5722656-5.7470779,10.0488281
		c-0.1421127,0.2982101,0.3082199,0.5137482,0.4511719,0.2148438c1.6445389-3.453125,3.5664139-6.8125,5.7099686-9.984375
		C133.7622833,74.6985626,133.3444366,74.4202499,133.1623077,74.6946106z"/><path d="M131.2218781,86.8537903l5.7138672-3.2568359c0.2884674-0.1641693,0.0355682-0.600975-0.2480469-0.4335938
		l-5.7138672,3.2568359C130.688736,86.5824356,130.9340515,87.0192871,131.2218781,86.8537903z"/></svg>