<svg xmlns="http://www.w3.org/2000/svg" enable-background="new 0 0 156 156" viewBox="0 0 156 156"><path d="M132.4932556,37.6804085c0.2654114,0,0.552536-0.7111969,1.9194336-1.1439209
		c-0.0698242,0.0831299-0.0944824,0.1968994-0.0307617,0.2913818c0.4951172,0.734375,0.6611328,1.6914062,0.4443359,2.5595703
		c-0.0817108,0.3198357,0.4044037,0.4423637,0.484375,0.1210938c0.2509766-1.003418,0.0585938-2.1098633-0.5146484-2.9599609
		c-0.0279541-0.0415039-0.0727539-0.0585938-0.1154785-0.0771484c0.9938965-0.2476807,2.071167-0.1643066,2.973877,0.3183594
		c0.2953491,0.1547089,0.5254669-0.2851753,0.2363281-0.4414062c-1.7832031-0.9516602-4.1806641-0.5595703-5.578125,0.909668
		C132.1594696,37.4181938,132.2770081,37.6804085,132.4932556,37.6804085z"/><path d="M91.5674667,37.8146858c0.2201843,0.2396126,0.5940857-0.0894737,0.3710938-0.3359375
		c-1.3623047-1.5029297-3.7509766-1.9550781-5.5566406-1.0458984c-0.29776,0.14888-0.0668869,0.5978699,0.2246094,0.4462891
		c0.9150391-0.4588623,1.9936523-0.515625,2.980957-0.2441406c-0.0429688,0.0172119-0.0878906,0.0325928-0.1166992,0.0732422
		c-0.59375,0.8388672-0.8125,1.940918-0.5839844,2.9472656c0.0730743,0.3220596,0.5611725,0.2129478,0.4882812-0.1103516
		c-0.1982422-0.8706055-0.0097656-1.8227539,0.5039062-2.5478516c0.0656738-0.0925293,0.043457-0.2053223-0.0227051-0.2901611
		C90.5061874,36.9306526,91.1033554,37.3032112,91.5674667,37.8146858z"/><path d="M111.4385605,45.3312874c0.3133392,0.1044464,0.4742584-0.3669815,0.1601562-0.4736328
		c-0.971817-0.3285255-1.7257843-0.3600922-2.5371094-0.9082031c-1.1642761-0.781517-0.7731705-1.847477-0.5839844-3.2495117
		c0.8769989-6.6386337,1.2347717-7.0849304,0.765625-7.1464844c-0.1347656-0.0180664-0.2626953,0.0786133-0.2802734,0.215332
		c-0.4894791,3.7109184-0.4931946,3.1719208-0.9814453,6.8657227c-0.2057266,1.5429688-0.6294708,2.7695274,0.8007812,3.7294922
		C109.6789474,44.9700089,110.4868011,45.0098724,111.4385605,45.3312874z"/><path d="M118.6975937,32.6330452c0.9283447,0.0151367,1.5706787-0.677002,0.7736816-1.5018311
		c-0.4963379-0.5137939-1.1079102-0.9025879-1.7294922-1.2254639c-0.9540329-0.4960003-1.9763336-1.2392254-2.9804688-0.6693115
		c-0.324585,0.1842041-0.5985107,0.5200195-0.5864258,0.8980713
		C114.2145157,31.3709145,117.3278046,32.6106224,118.6975937,32.6330452z"/><path d="M104.402916,29.8935432c0.708252-0.618042,0.7382812-1.5742188-0.4008789-1.6540527
		c-0.9833298-0.069006-1.7901764,0.1811199-2.5855713,0.3684082c-0.8865967,0.208374-1.8717041,0.4562988-2.1970215,1.4006348
		c-0.1235352,0.3586426-0.1097412,0.796875,0.1468506,1.072998
		C100.2089691,31.9891357,103.3697205,30.7956047,104.402916,29.8935432z"/><path d="M68.5215683,97.7150726c-4.8949966-1.2798843-10.1253548,2.3382721-10.1699181,8.0336914
		c-0.0039711,0.5488052-0.5112839,0.9435883-1.0136719,0.7988281c-4.0814972-1.1949539-8.3156891,0.447197-10.6142578,3.8740234
		c-0.1840935,0.2773209,0.2326126,0.5479279,0.4160156,0.2783203c2.1786537-3.2487106,6.1852036-4.8040771,10.0576172-3.6728516
		c0.8310013,0.246109,1.6462746-0.4081345,1.6542969-1.2744141c0.0166016-2.1157227,0.9003906-4.2270508,2.3662109-5.6489258
		c1.8652344-1.8081055,4.6826134-2.5556641,7.176754-1.9052734c0.1367188,0.0380859,0.2705078-0.0449219,0.3056641-0.1787109
		C68.7344589,97.8864594,68.6543808,97.7497406,68.5215683,97.7150726z"/><path d="M40.2695961,103.8034515c-1.5253677-0.0585938-3.0038834-1.1015625-3.5956802-2.5361328
		c-0.5927734-1.4365234-0.2880859-3.2441406,0.7421875-4.3964844c0.139225-0.1563568,0.0362244-0.404335-0.171875-0.4160156
		c-1.7822266-0.1020508-3.3857422-1.5913086-3.6503906-3.3901367c-0.2646484-1.8007812,0.8408203-3.7036133,2.5166016-4.3325195
		c0.3125992-0.117218,0.1290398-0.5880966-0.1757812-0.4677734c-1.8867188,0.7080078-3.1328125,2.8486328-2.8349609,4.8725586
		c0.2744141,1.8686523,1.8339844,3.4404297,3.6533203,3.7626953c-2.200428,3.0552597-0.0984421,7.2646713,3.4970703,7.4038086
		c0.0029297,0,0.0068359,0,0.0097656,0C40.5841904,104.3034515,40.5938568,103.8161011,40.2695961,103.8034515z"/><path d="M21.4533348,82.7576752c0.7000122,1.6000977,2.2000122,2.6400146,3.8599854,2.1600342l0.9634399-0.2763672
		c0.7524166,0.4282303,1.4864388,0.4921646,2.2360229,0.2768555l2.8705444-0.8280029
		c-1.2184448,1.4766846-1.8995361,3.3331299-1.8724976,5.1575928c-2.8300781-0.6010742-5.9716797,0.6806641-7.5761719,3.1328125
		c-1.647522,2.5063477-1.6196289,5.9958496,0.0369263,8.4042969c-0.0700073,0.022583-0.1173096,0.0681152-0.1453247,0.1350098
		c-2.769043,2.237915-3.5097656,6.024292-1.8183594,9.5754395c2.3338871,4.9129181,8.7450733,7.194603,14.9039307,4.1466064
		c0.0057373,0.0467529,0.0029907,0.0960693,0.0101318,0.1424561c0.0206985,0.1378021,0.1498489,0.229805,0.2851562,0.2089844
		c0.0239868-0.0036621,0.0365601-0.0251465,0.0574951-0.03479c1.8261719,2.3621826,4.0842285,3.9859619,6.4937134,4.6589355
		c-0.5947418,0.7643661-0.0151253-0.1709137-7.4154663,17.4637451c-1.0033951,2.4083557,0.7463264,5.0463867,3.2802734,5.0463867
		l85.0097656-0.0800781c2.4263992,0,4.1676559-2.4278564,3.3681641-4.7998047l-5.4609375-16.140625
		c-0.4960938-1.4545898-1.8408203-2.4384766-3.3447266-2.4492188l-57.0385704-0.3598633
		c-0.2966309-0.2641602-0.5740356-0.5332031-0.8227539-0.8144531c4.2258682,0.6889954,8.6101723-0.8694992,11.2924767-3.6157227
		c30.8960495,0.021637,36.1624756-0.0586395,43.7973633-0.0913086c5.680191-0.0124054,7.0571518-1.1977005,7.6474609-6.390625
		c0.0124054-0.1032715,1.0771866-9.1349487,1.2038574-10.2470703c3.6986618,0.5681839,7.658287,0.5072784,11.0285721-1.1572266
		c0.7442169-0.3674545,2.7035065-1.5190735,3.2314453-2.1645508c1.4073181-1.702919,0.4495544-7.7391357,0.3681641-9.7597656
		c-0.292038-7.0803909-1.1137543-10.205307-2.0932617-13.1418457c0.3334961-3.3956299-1.5862122-23.5689774-1.6872559-25.0678673
		c4.7131805-0.4474487,7.5723572-5.1699638,6.8469238-9.282959c-0.6261139-3.5993347-3.9636993-6.5194073-7.4838867-6.5576172
		c-0.4603119-3.5438805-1.7163391-8.3010674-3.9925537-10.6793213c-2.1999588-2.2800293-6.070076-2.5900879-8.5900955-0.7099609
		c-0.3399658,0.25-0.8598633,0.1699219-1.0799561-0.1900635c-2.0772476-3.341732-6.1843567-4.3009043-10.1199951-4.5100098
		c-4.6999512-0.25-9.4399414,0.4699707-12.9499512,3.7399902c-2.6500244,2.4699707-4.0500488,5.8299561-5.0300293,9.3299561
		c-0.4924316,1.0313721-0.8804932,2.1094971-1.19104,3.2189941c-3.3395615,0.1640835-6.5416565,2.8884773-7.234375,6.3717041
		c-0.8812332,4.3669395,2.2850876,9.3000565,7.3110352,9.5672607c0.1855469,1.0240479,0.3967285,2.0361328,0.6121826,3.0524902
		c-2.8747101,0.0350533-34.9459038,0.4463196-35.8561363,0.4644775c-0.2099915-0.5364494-0.3264427-1.1188927-1.1385498-1.7698975
		c-0.0843506-0.2249756-0.1687622-0.4499512-0.2531128-0.6750488c-0.4800415-1.75-2.3000488-2.7399902-3.9899902-2.1799316
		c-4.3190308,1.0697021-8.5327759,2.2215576-12.632019,3.4621582c-1.4852562-3.7671776-4.5252953-3.6408997-6.0270386-1.2994385
		c-0.5852661,0.8898926-0.8710327,2.0549316-0.8908081,3.5296631c-4.6537476,1.5863037-9.1430664,3.2999268-13.420166,5.1776123
		c-1.6099854,0.5300293-2.2600098,2.1900635-2.0599976,3.9000244
		C15.6633568,65.7776947,19.1433372,77.5477142,21.4533348,82.7576752z M117.1914902,119.1579437
		c1.2919922,0.0087891,2.4482422,0.8574219,2.875,2.1098633l5.4599609,16.1401367
		c0.6903839,2.0396729-0.8025131,4.1396484-2.8935547,4.1396484l-85.0097656,0.0800781
		c-2.2225075,0-3.6688461-2.3151703-2.8193359-4.3540039c7.3736191-17.5496292,6.8398628-16.8272552,7.4923096-17.5333252
		c2.6472397,0.5797882,5.468132,0.1969452,7.9708252-1.0026855l2.5964966,0.0097656
		c0.7171021,0.7739258,1.531311,1.4447021,2.4099731,2.0196533l-5.8700562-0.0093994
		c-1.1799927,0-2.25,0.6101074-2.710022,1.5500488l-6.1499634,12.5c-0.8200073,1.6599121,0.5799561,3.5,2.6699829,3.5
		l74.7399902-0.3000488c2-0.0100098,3.4099121-1.7199707,2.7700195-3.3499756l-4.7600098-12.0599365
		c-0.4000244-1.0100098-1.4899902-1.6900635-2.7299805-1.6900635l-49.8281822-0.1192627
		c-0.578064-0.7769012-1.2492599-0.9067078-2.6417847-1.9864502L117.1914902,119.1579437z M51.2104759,118.2411957
		c0.8235626-0.483345,0.8298607-0.4265594,1.2022095,0.0045166L51.2104759,118.2411957z M47.5133324,133.807724
		c0.0933914,0.3037109-0.3641586,0.4745941-0.4799805,0.1499023c-0.5100098-1.5198975-0.3600464-2.5898438,0.4400024-3.0799561
		c0.5496025-0.3449707,0.7011719-0.2686157,6.7999878-0.2399902c2.0748062,0,1.996624,0.8029022,3.1900024,3.7200928
		c0.1208725,0.3140717-0.3422928,0.4769745-0.4700317,0.1899414c-1.3071518-3.0209351-0.9759865-3.4100342-2.7199707-3.4100342
		c-5.8333969-0.0093384-6.0937119-0.1016541-6.539978,0.1600342
		C46.9733543,131.7776947,47.2633324,133.0677338,47.5133324,133.807724z M74.5533066,124.4377289
		c-1.3299561-0.0400391-2.6799927-0.0600586-4.0199585-0.0400391c-1.2594604,0.0221176-2.1362915,0.2714691-2.3400269,1.7200928
		c-0.0899658,0.6098633,0.0100098,1.25,0.1000366,1.8598633c0.0643005,0.3006744-0.4340973,0.4154663-0.4900513,0.0800781
		c-0.0999756-0.6199951-0.2099609-1.3300781-0.1099854-2.0100098c0.2594986-1.7301407,1.3486862-2.1263275,2.8400269-2.1500244
		c1.3399658-0.0200195,2.7000122,0,4.039978,0.0400391c0.6400146,0.0299072,1.3099976,0.0799561,1.8200073,0.4799805
		c0.8900146,0.7099609,0.789978,2.0100098,0.5999756,3.0699463c-0.0484772,0.3161011-0.5386429,0.2513962-0.4899902-0.0899658
		C76.9318237,124.9342194,76.1402512,124.4921722,74.5533066,124.4377289z M89.5432968,132.8377533
		c-0.50634-0.1520844-0.8031387-0.1291199-3.9799805-0.2000732c-0.6099854-0.0198975-1.2399902-0.0299072-1.8200073,0.1500244
		c-0.6099854,0.1799316-1.0700073,0.5800781-1.2299805,1.0500488c-0.2519684,0.7893372,0.2800293,1.7261658,0.2800293,2.6599121
		c0,0.2948761-0.5,0.3469696-0.5,0.0100098c0-0.9421844-0.5829315-1.8312531-0.25-2.8299561
		c0.2099609-0.6300049,0.789978-1.1400146,1.5499878-1.3699951c0.6599731-0.1999512,1.3299561-0.1899414,1.9899902-0.1700439
		l2.6999512,0.0599365c0.4699707,0.0100098,0.9500732,0.0200195,1.4100342,0.1601562
		c2.0867157,0.668869,2.1453857,3.673111,1.4000244,3.4599609c-0.1300049-0.0500488-0.2000732-0.1900635-0.1600342-0.3200684
		C91.2633896,134.4377289,90.6033554,133.1777191,89.5432968,132.8377533z M97.8533554,130.4576263
		c0.0963135,0.3139496-0.3543472,0.4737701-0.4801025,0.1601562c-0.3059692-0.9478149-0.8730316-3.3402481-0.3199463-4.170166
		c0.2700195-0.4199219,0.7401123-0.5898438,1.2000732-0.7299805c6.0723267-1.8802109,7.0862503-0.3002243,7.6699219,2.7200928
		c0.0735245,0.3182831-0.4161758,0.4195099-0.4899902,0.0999756c-0.5146179-2.6718216-1.2425079-4.1806335-7.0300293-2.3400879
		c-0.8894577,0.2647858-1.1341782,0.5362701-1.0799561,1.4300537
		C97.3732529,128.5877533,97.5434189,129.5477142,97.8533554,130.4576263z M110.8233261,136.5777435
		c0.1205444,0.3135834-0.3482132,0.4852448-0.4699707,0.1799316c-0.3164749-0.8067169-0.6979218-2.5970917-0.2600098-3.2099609
		c0.1300049-0.1700439,0.3099365-0.2700195,0.4799805-0.3500977c1.6199951-0.7598877,3.4100342-1.1298828,5.210083-1.119873
		c1.6841736,0,1.1807098,1.5869141,1.6098633,2.3798828c0.1492462,0.2984924-0.2800903,0.5266876-0.4399414,0.2301025
		c-0.3798904-0.6931915-0.1717072-1.7801971-0.7099609-2.0400391c-0.3973846-0.1830292-3.0627213-0.108902-5.4499512,1
		c-0.3378525,0.1556244-0.3664246,0.2312164-0.3901367,0.6099854
		C110.3832626,135.0477142,110.5334091,135.8477631,110.8233261,136.5777435z M58.7579002,116.8635101
		c-0.2330093-0.0503769-0.3913422,0.214241-0.2539062,0.3950195c2.1510048,2.8384552,5.0114098,3.272049,4.6962891,4.5302734
		c-0.1621094,0.6713867-1.2949219,0.6445312-1.5253906,0.6293945c-2.0341797-0.097168-4.0527344-0.7412109-5.8408203-1.8632812
		c-3.6700783-2.255043-2.9222717-3.9055862-4.75-2.8115234c-2.4940033,1.5029907-5.4762535,2.0676193-8.2490234,1.6079102
		c-2.7741699-0.4671631-5.4102173-2.2631836-7.4476929-5.053833c-0.1033783-1.9028244,0.9123878-3.5225677,2.1264038-4.9915771
		c0.2119102-0.2566452-0.1776962-0.5731201-0.3847656-0.3183594c-1.2434464,1.5028076-2.2714844,3.1631546-2.2556763,5.1140137
		c-5.8806915,3.022789-12.1433964,0.9571686-14.4142456-3.8210449c-1.5999756-3.3591309-0.8910522-6.934082,1.7409668-9.0178223
		c1.1749268,0.0063477,2.3488159,0.6955566,2.9240723,1.7570801c0.1548958,0.2879105,0.5962868,0.053154,0.4394531-0.2382812
		c-0.605896-1.1186523-1.7716675-1.8752441-3.0203857-2.0046387c-0.0083618-0.0263672-0.0028687-0.0563965-0.0196533-0.0788574
		c-1.6845703-2.2490234-1.7558594-5.6313477-0.1708984-8.043457c1.5517578-2.3725586,4.6484375-3.5688477,7.3564453-2.8452148
		c0.169548,0.0450058,0.3255405-0.092453,0.3134766-0.2573242c-0.1288452-2.0539551,0.7237549-4.1899414,2.2802124-5.7270508
		l6.7639771-1.9510498c0.4909668,0.1010742,0.9712524,0.2537842,1.4320068,0.4504395
		c2.7669182,7.6727829,1.5907593,5.17099,2.6471558,7.8270264c-0.9979286,1.3965302-1.0396385,3.0894699-0.8206177,4.817627
		c0.0415039,0.3359375,0.537735,0.2613831,0.4960938-0.0625c-0.2062607-1.6179123-0.1797066-3.3011093,0.8046875-4.5830078
		c1.0817184-1.5077438,3.0162086-1.5474854,3.8798828-0.4418945c0.1542778,0.1950531,0.4658241,0.0713272,0.4462891-0.1728516
		c-0.1899147-2.4954758,4.16362-3.065033,6.0878906,0.8110352c0.5664062,1.1323242,0.8583984,2.5205078,0.8935547,4.2426758
		c0.0071602,0.3341446,0.5070496,0.3215256,0.5-0.0097656c-0.0361328-1.7983398-0.3457031-3.2563477-0.9462891-4.4560547
		c-0.9541664-1.9226913-2.9286385-3.4047165-4.9605103-3.0106201c-0.2045975-1.4301071-0.5862389-2.8095627-1.0169678-4.1951904
		c1.6373291-0.6069336,3.6199951-0.6575928,4.9042358-0.104248c2.2099609,0.9638672,3.9121094,3.2944336,4.5546875,6.234375
		c0.0253906,0.1152344,0.1269531,0.1967773,0.2441406,0.1967773c0.1003418,0.0315933,1.8384552-0.2115555,3.4423828,2.1791992
		c0.7851562,1.1713867,0.9443359,2.7753906,0.40625,4.0859375c-0.1254807,0.3032455,0.3354378,0.4972076,0.4628906,0.1894531
		c0.5986328-1.4599609,0.4208984-3.2475586-0.4541016-4.5541992c-0.9775391-1.4555664-2.3310547-2.3383789-3.6572266-2.3979492
		c-0.7089844-3.0043945-2.4921875-5.3857422-4.8007812-6.3920898c-1.3848267-0.5983887-3.5066528-0.5537109-5.2536621,0.0864258
		c-0.4457893-1.4036407-0.5585136-1.7281265-1.0007935-3.1322021l3.0079956-0.8675537
		c2.265625,0.3979492,4.2635498,1.9099121,5.2210693,3.9587402c0.0833473,0.1752472,0.3196564,0.192749,0.4287109,0.0405273
		c1.5335693-2.1203613,4.3421631-3.1628418,7.2530518-2.746582c-0.3792114,0.5114746-0.6620483,1.1054688-0.8077393,1.734375
		c-0.2308464,0.9898376,0.1001587,1.7182388,0.4892578,2.6152344c0.4335938,1.0014648,0.8974609,2.0073242,1.3779259,2.9902344
		c0.8154297,1.6669922,1.828125,3.5327148,3.5390625,4.5737305c1.6602707,1.0132523,3.0548553,0.4763412,3.5009766-0.5024414
		c0.034729-0.0759277,0.0414429-0.1566162,0.0640259-0.2348633c4.9798584,2.587822,6.443222,6.5632629,5.5219116,9.7128906
		c-0.6376953,2.1420898-2.5625,3.7363281-4.578125,3.7910156c-0.1815643,0.0052185-0.2993164,0.1967773-0.2167969,0.3618164
		C75.4761581,111.5193329,66.8159027,118.6617279,58.7579002,116.8635101z M49.0420799,87.41185
		c-0.7558365,0.2755661-1.3780479,0.9540482-1.5488281,1.7587891c-1.153614-0.8928833-2.8804436-0.6905289-3.987793,0.5113525
		c-0.0019531,0.0020752-0.0043945,0.00354-0.0063477,0.0057373c-0.1821823-0.4821777-2.2639771-7.2608032-2.5996094-7.699707
		c-0.0664062-0.1899414-0.1357422-0.3833008-0.2070312-0.574707c0.1011162-0.0292206,6.2866631-1.8168182,6.1855469-1.7875977
		C47.7931328,82.5367661,48.7364845,85.1389923,49.0420799,87.41185z M40.2578392,81.6883392
		c-0.0797119-0.0281982-0.1585083-0.0557861-0.2391968-0.081665l0.1896973-0.0544434
		C40.2251854,81.597641,40.2411156,81.642807,40.2578392,81.6883392z M59.3330956,76.0280609c0,0,0.0009766,0,0.0009766-0.0004883
		c1.6650391-0.4868164,2.6425781-2.265625,2.1865234-3.9355469c-0.7570801-5.2354736-2.1263428-10.7665977-4.1748047-16.891964
		c1.4890137-0.0405235,43.0044594-0.5865326,46.9091759-0.6221924c2.1547318-0.0186462,4.5146255-0.3470955,6.6005859,0.3374023
		c2.5908203,0.8569336,2.9638672,3.4326172,3.3310547,5.9589844c0.2958984,2.0043945,0.484375,4.0366173,0.6679688,6.1166954
		c1.455574,15.616745,1.2006683,14.908905-1.0195312,34.6791992c-0.4484482,4.046051-1.4541473,4.7843933-5.7529297,4.7958984
		c-3.5611954,0.0123367-6.8635025,0.081543-34.8793945,0.081543c-0.1072388-0.5571289-0.2506104-1.0737305-0.4418945-1.5258789
		c2.2320557-0.2475357,4.4188461-2.1863556,4.8546143-4.9362793c3.3759308-0.8236084,6.6646805-3.1485825,9.4838867-5.0854492
		c7.3582458,4.7825241,16.2839355-1.6070023,16.2839355-11.47229c0-8.2546921-6.2635193-13.7967224-11.8898926-13.0200195
		c-4.447876,0.4025879-8.147522,3.9415283-9.5584106,8.7454834c-4.5750122,0.4394531-9.6415939-2.321228-14.6838989-1.4521484
		c-1.6186447,0.2749329-2.8312073,0.9055634-3.6052208,1.6108398c-3.0501099-0.5351562-6.0454712,0.4619141-7.7873535,2.5883789
		c-0.9423218-1.7473145-2.6027222-3.0808105-4.5229492-3.6652832L59.3330956,76.0280609z M70.8710556,87.6067963
		c-0.022522-0.4135742-0.086792-0.8262939-0.1707153-1.2357178c0.6185303,0.3426514,1.4721069,0.7449951,2.2557983,0.8459473
		c2.4608917,0.3141098,4.3534546-1.3635025,4.2324219-3.3413086c-0.0215454-0.3363495-0.5185089-0.2962112-0.5,0.03125
		c0.1036224,1.6434631-1.5066833,3.0948486-3.6679688,2.8139648c-1.0957031-0.140625-2.4091797-0.9614258-2.7851562-1.2094727
		c-0.1889191-0.1252365-0.4398651,0.0501633-0.3789062,0.2744141c1.0491104,3.9307556,1.3806229,4.5777817,1.0566406,5.2851562
		c-0.3317337,0.7284851-1.4013748,1.1272736-2.7861328,0.2832031c-2.1416321-1.3034592-3.3429947-4.2577591-4.7568321-7.4262695
		c-0.3408203-0.7861328-0.6103516-1.4067383-0.4228516-2.2128906c0.4868317-2.0981674,2.2818336-3.0634308,4.3886681-3.4208984
		c4.9416046-0.8562241,10.0395279,1.8998489,14.5380859,1.4726562c3.2745895-0.2724228,4.6579132-1.7973404,14.6474609-4.5888672
		c0.79319-0.2272797,1.0037308-0.1618271,1.4814453,0.4697266c3.2850723,4.3800964,3.9787064,9.6817856,3.3916016,11.5229492
		c-0.8290939,2.5634155-4.4694138,2.1805801-8.15625,3.6860352c-5.3587418,2.2036285-10.1082382,7.2691574-15.5714111,8.6987305
		c0.2511749-3.1571808-1.4528885-6.6549149-6.1519775-9.0327148C71.5280304,89.829277,71.3232651,89.2986755,70.8710556,87.6067963z
		 M137.4034119,84.0773773c0.0788879,1.9065094,0.9884186,7.9184265-0.2539062,9.421875
		c-0.4613495,0.5620728-2.353714,1.6820221-3.0664062,2.0341797c-3.281662,1.6212234-7.1624222,1.6614685-10.7519608,1.1090088
		c0.8642578-7.6763916,1.4985352-15.5089111,0.78125-23.2872314c-0.9212875-10.2466621-1.1223526-12.426033-1.447876-14.8918419
		c6.1495895,1.4112663,10.4483414,4.9100723,13.1441727,14.0700645
		C135.8820496,72.9405746,137.0661011,75.9158707,137.4034119,84.0773773z M100.8316269,49.0793343
		c-4.8911133-3.6308899-6.5956573-10.267498-5.5200195-16.3583984c0.015625-0.117672,0.373642-4.9884014,2.7382812-7.5065918
		c0.0007324,0.0046387-0.0001221,0.0090332,0.0007324,0.0135498c-0.0171356,0.1071072-0.0399323,0.2390652-0.0036621,0.3519287
		c0.3309555,1.0596123,6.9770508,2.907938,11.4638672-1.6108398c-0.0029297,0.4233398,0.0302734,0.8842773,0.1777344,1.265625
		c0.4713135,1.225071,2.0266876,0.3829632,2.9287109-0.5454102c1.7957916-1.8397636,1.0871964-1.352644,2.7900391-3.9077148
		c0.9713593,1.4835758,2.3476257,2.556427,3.7697754,3.6599121c2.2007751,1.7076054,3.5696106,2.444397,7.1843262,1.4998779
		c3.297493,4.787508,3.2428665,12.4785423,0.9042969,17.5926514c-1.1582031,2.5263672-3.0527344,4.6000977-5.4824219,6
		c-0.5744629,0.3479004-1.2109375,0.6557617-1.8894043,0.9221191
		C117.2616653,48.2186546,113.8555832,48.9598465,100.8316269,49.0793343z M140.4776306,36.6511116
		c0.5615234,3.1831055-1.1728516,6.640625-4.0351562,8.0424805c-2.7355957,1.352417-6.3436279,0.6743164-8.4716873-1.5594482
		c1.1791-2.881176,1.7518845-6.5004883,1.3032303-10.3250732c0.0717773-0.0186768,0.1362305-0.0588379,0.168457-0.1315918
		c0.7460938-1.7158203,2.8671875-2.3134766,4.5253906-2.1513672
		C137.1270447,30.8449593,139.9258728,33.4777718,140.4776306,36.6511116z M83.7881699,36.6765022
		c0.6289062-3.1621094,3.4892578-5.7280273,6.6523438-5.9692383c1.6223145-0.121582,3.5750732,0.472168,4.3635254,2.0334473
		c-0.6229553,3.6133423-0.3446198,7.2721443,1.1068115,10.7197266c-0.0201416,0.012207-0.0455322,0.010498-0.0621338,0.0290527
		c-2.1035156,2.3100586-5.3291016,2.8300781-8.21875,1.3266602C84.8018417,43.3347054,83.1504745,39.8356819,83.7881699,36.6765022z
		 M111.6602402,49.4015999c2.4992447-0.101162,5.985405-0.2459984,7.8828125,1.4082031
		c2.5868835,2.1608086,2.7100067,7.4451523,4.0712891,22.5908165c1.0423203,11.2930145-0.7852249,22.7713089-2.0390625,33.9291992
		c-0.6039276,5.2901611-2.0118561,5.9355927-7.5136719,5.9477539c-14.4072266,0.0991211-28.546875,0.0991211-42.9609375,0.0908203
		c0.438385-0.4925995,0.9756622-1.2280579,1.3773193-1.9953613c0.6853561-1.3103943,1.0235062-2.5972519,0.8131104-4.3254395
		c28.2111359,0,30.9359894-0.0681534,34.7919922-0.081543c4.4248352-0.0112228,5.7607803-0.8143768,6.2480469-5.2407227
		c2.2688065-20.0567169,2.4501648-19.4648666,1.0214844-34.7797852c-0.1835938-2.0864258-0.3740234-4.126461-0.6767578-6.1787071
		c-0.3652344-2.5180664-0.7792969-5.3720703-3.6640625-6.3261719c-2.1802597-0.7168617-4.5728226-0.3819466-6.7607422-0.362793
		c-2.8532104,0.0260429-44.9167213,0.5643196-47.0703087,0.6245117c-0.5158653-1.5219307-1.1387482-3.2406006-1.6298828-4.5449219
		C115.7982712,49.3799553,110.0132446,49.4678307,111.6602402,49.4015999z M54.9600487,50.0060921
		c2.7185211,7.1866417,4.9783478,14.6422997,6.0722656,22.1870079c0.3916016,1.4384766-0.4335938,2.9433594-1.8378906,3.3544922
		l-30.8203125,8.8901367c-1.4255142,0.4102707-2.6844158-0.5114899-3.2919922-1.871582
		c-2.1025391-4.7421875-5.3583984-15.7070312-6.0205078-21.2680626c-0.1953125-1.6308594,0.4882812-2.9511719,1.7626953-3.371582
		C33.3288345,52.418602,51.0854568,47.703846,52.2784081,47.703846
		C53.4421883,47.703846,54.4375992,48.3342514,54.9600487,50.0060921z M31.7442284,47.4724007
		c1.3048439-2.0380058,3.7916145-2.1788177,5.1278076,1.1706543c-2.0098877,0.6130371-3.980957,1.2563477-5.9317627,1.9152832
		C30.979641,49.2690315,31.2353783,48.2465706,31.7442284,47.4724007z"/><path d="M29.4934959,69.1208344c-2.0839462-0.8636932-5.019043,1.1991959-5.7772827-1.0925293
		c-0.4168282-1.2638779,0.397644-2.27211,1.6906738-2.715332c2.083271-0.714592,2.7588253,0.4668732,3.0792236-0.0819092
		c0.071331-0.1193161,0.0835056-0.300499-0.0223999-0.4500732c-0.2089119-0.2904053-1.2071037-0.4787598-1.7192993-0.4785156
		c-2.3110447-0.0011063-4.5764828,1.7063446-3.8153076,4.0102539c1.1837902,3.5727768,6.0134182-0.2595673,6.8914185,2.388916
		c0.4187031,1.2661819-0.537981,2.1307144-1.8098145,2.5671387c-2.4403896,0.8365479-3.1462536-0.359108-3.4447021,0.2216797
		c-0.5354729,1.0025177,2.9500542,1.313652,4.9538574-0.121582C31.3494835,72.0617447,30.9142761,69.7125168,29.4934959,69.1208344z
		"/><path d="M36.6614037,66.5554047c-0.5092812-1.540741-1.450428-2.2348099-2.9852295-1.7084961
		c-0.8765984,0.300705-1.5688019,0.9735794-1.708252,1.9433594c-1.2673168-3.7213211-1.1742973-3.8048515-1.4078369-3.9191856
		c-0.1876926-0.0886917-0.4787617,0.0241623-0.5654297,0.1937256c-0.1250019,0.2410545-0.0813427-0.0194016,2.828064,8.888546
		c0.0883865,0.2646637,0.2747002,0.3566284,0.5231934,0.2713623c0.25177-0.0865479,0.3326416-0.2642822,0.2431641-0.5339355
		l-1.0874023-3.2885742c-0.7733727-2.3340912,1.6146011-3.3834076,2.5906982-2.7838135
		c0.8144569,0.5003967,0.9254189,1.8371506,2.0155029,4.8664551c0.1593018,0.4772339,0.6566772,0.3019638,0.7652588,0.0720215
		C37.9903946,70.3110352,37.8788834,70.3442841,36.6614037,66.5554047z"/><path d="M42.510891,62.9814339c-1.1125908-1.2138252-3.1310005-0.274334-4.2252808,0.9541016
		c-0.3450737,0.359684,0.1244812,0.9336815,0.4836426,0.5314903c0.4920044-0.5533638,0.9954643-0.9507713,1.6913452-1.1899376
		c1.0615044-0.3639755,1.617485,0.109848,1.9721069,1.1838341l0.1555786,0.4698486
		c-0.8695755,0.3004608-3.0869102,0.9603271-3.5029297,2.013916c-0.5263481,1.3337936,0.8445168,3.0513458,2.8029175,2.3814697
		c0.8666611-0.2976913,1.4697495-0.9559174,1.5332031-1.9208984c0.256321,0.6998215,0.2555389,0.9764099,0.4716797,1.0881348
		c0.2165108,0.1133499,0.6920776-0.02742,0.5291138-0.515625C43.2512665,64.6244583,43.165329,63.6974945,42.510891,62.9814339z
		 M39.8956566,67.8293304c-0.2402458-0.7256927,0.1006622-1.1251678,0.7770386-1.4794922
		c0.7454033-0.3900452,1.9003716-0.7554626,2.1101074-0.8317871l0.1425171,0.4304199
		C43.7789993,68.5323792,40.5344887,69.7545319,39.8956566,67.8293304z"/><path d="M47.2316551,60.186512c-0.9225426,0.3324852-1.5617676,1.0213737-1.6621704,1.9973145l-0.2728271-0.8256836
		c-0.1718521-0.513073-0.6552963-0.3018074-0.7574463-0.0893555c-0.1163406,0.2455711-0.0246582,0.152832,1.8807373,6.0244102
		c0.1633377,0.4893341,0.6893997,0.2833557,0.7843018,0.0654297c0.0402222-0.0910645,0.0391235-0.2023926-0.0043945-0.3327637
		c-0.869915-2.9958344-1.5985451-3.8607674-1.0947876-4.9565392c0.2122192-0.4604492,0.6053467-0.822998,1.1794434-1.0874023
		c0.100811-0.0556068,0.3373489-0.1060333,0.4193115-0.2961426C47.7924385,60.4827309,47.6316681,60.0096703,47.2316551,60.186512z"/><path d="M51.1063499,58.8729134c-3.2065239,1.0981255-2.2374306,6.1042595,0.5803833,6.6588097
		c1.319294,0.2599411,2.9657555-0.496582,3.6203003-1.5750694c0.3382225-0.4749336-0.2418785-0.8654747-0.5579224-0.4185791
		c-0.353817,0.5169868-0.8322144,0.9242821-1.557251,1.1727257c-1.4799767,0.5072021-2.5134773-0.2218704-3.0460815-1.6727257
		l4.3252563-1.482666c0.2157784-0.0737038,0.3124275-0.2408066,0.2312012-0.4859619
		C54.113205,59.2903214,52.8135338,58.2877808,51.1063499,58.8729134z M51.3310204,59.5078011
		c1.0313225-0.3537903,2.0208511-0.0013275,2.605957,1.5769043l-3.9650269,1.3590088
		C49.643074,61.0656738,50.0443993,59.949173,51.3310204,59.5078011z"/><path d="M115.290123,40.2043343c1.1204834,0,2.0286865-1.4936523,2.0286865-3.3361816
		c0-1.8422852-0.9082031-3.3359375-2.0286865-3.3359375c-1.1203613,0-2.0285645,1.4936523-2.0285645,3.3359375
		C113.2615585,38.7106819,114.1697617,40.2043343,115.290123,40.2043343z"/><ellipse cx="103.322" cy="36.853" rx="2.038" ry="3.352"/><path d="M112.6016464,48.0324593c0.7659454,0.0947952,1.7249069-0.1763268,2.5878906-0.9545898
		c0.6845703-0.6181641,1.171875-1.4018555,1.6425781-2.159668c0.1752548-0.2803993-0.2502213-0.5440102-0.4238281-0.2636719
		c-0.453125,0.7280273-0.921875,1.4814453-1.5537109,2.0522461c-0.6787109,0.6123047-1.4746094,0.9116211-2.1943359,0.8295898
		C112.3450165,47.4834518,112.2625275,47.992775,112.6016464,48.0324593z"/><path d="M17.8692284,44.1486702c-0.1755123-0.2819901-0.5978336-0.0212059-0.4277344,0.2607422
		c0.8320312,1.3623047,1.7373047,2.7001953,2.6914062,3.9770508c0.196003,0.2626457,0.6007442-0.0322723,0.4003906-0.2998047
		C19.5879784,46.8229866,18.691494,45.4977913,17.8692284,44.1486702z"/><path d="M23.3887596,47.7546272c0.1962891-1.6699219,0.2011719-3.3637695,0.0117188-5.0351562
		c-0.0352859-0.3293381-0.5335522-0.273262-0.4960938,0.0556641c0.1835938,1.6337891,0.1796875,3.2890625-0.0117188,4.9208984
		C22.8533077,48.0213127,23.350174,48.0890427,23.3887596,47.7546272z"/><path d="M19.7012596,50.8884163c0.287838,0,0.3467083-0.4096756,0.0693359-0.4902344
		c-1.5107422-0.4365234-2.9960938-0.9970703-4.4150391-1.6660156c-0.2961111-0.1421318-0.514349,0.3108406-0.2128906,0.4521484
		C16.771389,49.9523621,19.4317703,50.8884163,19.7012596,50.8884163z"/></svg>