<svg xmlns="http://www.w3.org/2000/svg" enable-background="new 0 0 156 156" viewBox="0 0 156 156"><path d="M17.565937,71.9619598c0.2063599,18.6081543,0.8139648,32.869873,1.9697266,46.223877
		c0.2539062,2.9921875,0.6694336,6.4228516,2.394043,9.265625c3.2020874,5.3640594,9.6458111,4.9423828,15.5649414,4.9423828
		c40.6171684,0,52.795742,0,93.1298828,0c6.3574219,0,11.5297852-4.9707031,11.5297852-11.0800781
		c0-17.8235931,0-59.1584854,0-72.9199219c0-3.9734039-3.4205933-6.9599609-7.2597656-6.9599609h-3.5037231
		c-0.1293945-1.4472656-1.3311768-2.5854492-2.8120117-2.5854492c-1.4807739,0-2.6825562,1.1381836-2.8119507,2.5854492
		c-60.681076,0.139637,17.2086029-0.2240486-67.5404663,0.1782227c-1.4869766-3.537632-1.5174942-8.3047295-3.2518921-10.9682617
		c-0.8399658-1.2900391-2.2799683-2.3100586-3.8199463-2.2099609c-1.3000488,0.0800781-2.5300293,1.2001953-2.6300049,2.4501953
		c-0.708252-4.4450665-5.9593391-6.0787086-9.0700073-3.25c-2.1600342,1.949707-2.4100342,5.3896484-1.2800293,8.0795898
		c-1.0599976-1.5698242-2.1399536-3.159668-3.6699829-4.2695312c-4.0085583-2.8821697-8.1882935-0.345253-8.0300293,4.2695312
		c0.0700073,2.0302734,0.9500122,3.9404297,1.9000244,5.7402344c-1.1900024-1.1298828-2.4199829-2.2998047-3.9299927-2.9199219
		c-1.5200195-0.6298828-3.4199829-0.6098633-4.6500244,0.4799805c-1.9557495,1.720829-1.7077293,5.6367645-0.8672485,8.0925293
		c-0.3735962,0.7595215-0.6501465,1.5532227-0.8555298,2.3679199c-2.3627882-0.5643272-3.9543247,1.1132355-4.1472168,3.3393555
		c-0.1515207,1.9248161,0.9513311,4.7098541,1.7411499,6.5737305C12.6108799,63.5863457,13.5064754,68.9237442,17.565937,71.9619598
		z M84.9653473,57.2512665c2.0953217-0.4239693,3.0177078,0.7802505,2.7973633,1.6933594
		c-0.1269531,0.5273438-0.574707,0.8994141-1.1308594,1.1972656c-1.6611786,0.5242577-3.8681412,1.7112846-5.3227539,2.3085938
		c-0.3063354,0.1262779-0.1135712,0.5896568,0.1904297,0.4628906c4.6110229-1.9044724,7.5457764-3.6372833,9.0073242-2.5263672
		c0.7241211,0.5498047,0.9931641,1.6621094,0.6123047,2.5302734c-0.5682373,1.2969055-2.4369812,1.5760117-3.7109375,2.0332031
		c-2.7656174,0.9936752-1.5844345,0.1443024-6.0390625,2.0126953c-0.283699,0.1170807-0.1432495,0.5567856,0.1699219,0.4697266
		c1.7094727-0.5292969,3.3095703-1.0537109,4.8579102-1.59375c1.1806641-0.1699219,2.2456055-0.0595703,2.8413086,0.65625
		c0.5380859,0.6455078,0.5703125,1.6904297,0.0737305,2.3789062c-0.4458008,0.6191406-1.2060547,0.9355469-1.9462891,1.2070312
		c-3.0880432,1.1295776-2.2355804,0.4779739-4.7905273,1.4306641c-0.2926636,0.1087418-0.1555252,0.5518723,0.144043,0.4775391
		c0.8295898-0.1923828,1.6591797-0.4140625,2.4829102-0.6611328c1.7212143-0.0923309,2.7166748,1.0785599,2.5737305,1.9765625
		c-0.1894531,1.1923828-1.9433594,2.3212891-3.0693359,2.7089844c-1.9760132,0.678566-3.8874664,1.8515549-5.3066406,0.1757812
		c-0.5561523-0.6552734-0.8564453-1.4980469-1.0986328-2.3115234c-0.8896484-2.9892578-1.1625977-6.2353516-0.7895508-9.3876953
		c0.137207-1.1582031,0.3974609-2.6445312,1.1972656-3.8662109C79.935791,58.7504425,82.7695465,57.6959267,84.9653473,57.2512665z
		 M141.6342926,121.3137665c0,5.828125-4.9477539,10.5703125-11.0297852,10.5703125H83.7046051v-11.9772949
		c4.2067184-3.313797,6.8821106-1.9030457,12.0107422-1.8029785c5.4941406-0.0205078,10.6025391-3.0664062,14.7060547-5.5136719
		c0.8720703-0.5146484,1.8608398-1.0966797,2.5180664-2.0234375c0.6005859-0.8603516,0.9018555-2.2402344,0.144043-3.234375
		c-0.7636719-1.0048828-2.1870117-1.1826172-4.1396484-0.5234375c0.5654297-1.0263672,1.0356445-2.1201172,1.0004883-3.3007812
		c-0.0217896-0.9467773-0.4775391-1.8837891-1.1686401-2.4365234c0.100563-0.5459442,0.0409012-0.7660828,0.0587769-2.737793
		h0.2900391c1.539978,0,2.7999878-1.25,2.7999878-2.7900391v-3.7998047c0-1.5400391-1.2600098-2.7998047-2.7999878-2.7998047
		c-5.5599976-0.590332-11.7000122-0.5200195-18.25,0c-1.2164307,0-2.2428589,0.7885742-2.6168213,1.8774414
		c-1.5186615,0.0476456-3.0310287,0.1143265-4.5531006,0.2155762V76.9228973
		c0.5278702-0.2020493,0.8319168-0.3219681,1.1640625-0.4362793h0.0004883
		c1.2773438-0.4394531,3.1767578-1.6933594,3.4008789-3.1035156c0.1786423-1.1281128-0.8198853-2.1273422-1.8842773-2.4296875
		c1.2426071-0.4147263,2.6491013-0.8400421,3.331543-1.7861328c0.6342773-0.8789062,0.59375-2.1650391-0.0942383-2.9921875
		c-0.4277344-0.5136719-1.0317383-0.7734375-1.7285156-0.8613281c1.3972702-0.447464,3.0670776-0.7901001,3.6826172-2.1953125
		c0.4770508-1.0888672,0.1474609-2.4345703-0.7675781-3.1298828c-0.9101562-0.6904297-1.9511719-0.4902344-2.9082031-0.2158203
		c0.3179169-0.4072304,0.4538574-0.8778992,0.3590088-1.3984375c0.1018677,0.0000534,40.4160461,0.0013313,40.5174561,0
		c4.2496185-0.0512466,8.7194672,0.5576477,12.8564453-0.8896484V121.3137665z M69.5540314,113.3083954
		c11.0953674-7.1289062,10.5134048-7.9535675,20.8493042-8.7270508c2.1604919-0.0844116,5.3127213-0.4495773,7.4638672,1.2871094
		c1.0493851,0.8486557,0.4802475,1.8395462-0.2368164,2.3964844c-0.6660156,0.5166016-1.5351562,0.7148438-2.375,0.8515625
		c-2.5639648,0.4199219-5.1552734,0.3798828-7.7036133-0.1113281c-0.3094025-0.0801315-0.430687,0.4273911-0.0947266,0.4902344
		c2.6069336,0.5036926,5.245575,0.5426483,7.878418,0.1152344c0.9052734-0.1474609,1.8466797-0.3652344,2.6015625-0.9511719
		c0.6469727-0.5014648,1.1903076-1.4294434,1.0009766-2.3681641c2.0442123-1.7264175,4.3493118-3.3281937,6.7480469-4.6787109
		c0.9328156-0.5184097,1.7701569-0.8789902,2.6728516-0.2353516c0.003418,0.0029297,0.0673828,0.0507812,0.0708008,0.0527344
		c0.5981445,0.4716797,0.996582,1.2919922,1.0146484,2.0917969c0.0352173,1.1865234-0.5162964,2.3144531-1.1264038,3.3754883
		c-5.0664825,4.4464493-4.8442764,3.46772-10.2359009,8.3041992c-0.4306641,0.3857422-0.8603516,0.7705078-1.293457,1.1513672
		c-0.2519608,0.2210617,0.0859756,0.5914307,0.3300781,0.375c0.434082-0.3808594,0.8652344-0.7675781,1.296875-1.1542969
		c5.2085724-4.6686783,5.176651-3.9273376,9.9349365-8.048584c0.0425415,0.0061035,0.0864258,0.0070801,0.1280518-0.0100098
		c1.434082-0.5830078,3.328125-1.0361328,4.2070312,0.1201172c0.605957,0.7949219,0.34375,1.9287109-0.1552734,2.6445312
		c-0.59375,0.8369141-1.5336914,1.390625-2.3637695,1.8798828c-4.0527344,2.4169922-9.0957031,5.4248047-14.453125,5.4443359
		c-2.9206924,0.0144272-5.9656677-0.8602219-8.8500977,0.0009766c-3.297226,0.9786606-5.0081635,3.5536118-9.4418945,7.2463379
		C75.2719879,120.7029266,72.631424,116.8286591,69.5540314,113.3083954z M104.8047028,91.783493
		c1.9462891,0,3.5297852,1.5791016,3.5297852,3.5205078c-0.0051804,5.696434,0.0111771,5.1986694-0.0151367,5.4667969
		c-1.0249786-0.5111313-1.9261932-0.1223373-2.8774414,0.4052734c-1.5103378,0.8506393-3.4484634,2.1390686-4.3286133,2.7783203
		H80.1845856c-1.9467773,0-3.5302734-1.5791016-3.5302734-3.5205078v-5.1298828
		c0-1.9414062,1.5834961-3.5205078,3.5517578-3.5214844C87.9850998,91.1080322,97.0722733,90.9668503,104.8047028,91.783493z
		 M60.9590034,80.3967743c0.8200188,0.5874023,1.229641,1.9267654,0.5341797,2.6542969
		c-0.1297226,0.1371078-0.0670776,0.3628922,0.112793,0.4130859c1.5092773,0.4287109,2.6826134,1.9326172,2.7285118,3.4970703
		c0.0387955,1.5097504-0.9854851,3.1086884-2.5307579,3.6367188c-0.3169556,0.1064377-0.1461754,0.584404,0.1611328,0.4726562
		c0.8497314-0.2895508,1.5944214-0.8835449,2.1196861-1.6677246c5.5677261-1.0272675,11.5259018-1.0261154,16.3504639,1.8608398
		c-0.0844727,0.0065918-0.1742554,0.0129395-0.2504272,0.0197754c-2.222168,0-4.0302734,1.8037109-4.0302734,4.0205078
		c0.0804672,4.9828339-0.1796646,5.2841263,0.2502441,6.4785156v0.121582c0,2.0795898,1.6900024,3.7700195,3.7799683,3.7700195
		h0.8937988c-2.3131714,0.9160156-4.5230103,2.4152832-6.6647339,3.8759766
		c-2.4501572,1.671402-1.6472778,1.0979996-5.1901855,3.376709c-2.233345-2.5158539-3.40242-2.7551498-6.1101036-1.6403809
		c-9.6422157,3.9726562-12.4416618,5.5891418-19.2900391,9.3701172c-0.292141,0.1602097-0.0460014,0.5987244,0.2402344,0.4375
		c6.8136826-3.7605972,9.6223907-5.3846436,19.2402344-9.3447266c2.3302269-0.9643173,3.3622475-0.9297638,5.3964806,1.3369141
		c3.5419922,3.9501953,6.5219727,8.3671875,8.8569336,13.1279297c1.2414093,2.5265656-0.3688889,2.2796478-3.6879883,4.3984375
		c-0.2884903,0.1611786-0.0453644,0.5967865,0.2441406,0.4355469l2.9199219-1.6376953
		c2.0154877-1.1353607,1.626091-2.1229858,0.6220703-4.1025391c2.3303452-1.9327469,4.5098953-4.1202621,5.5493164-4.9980469
		v11.5742188H37.4746284c-3.8870544,0-8.44207,0.2970581-11.828186-1.5454102
		c-0.1445923-1.2006836-0.1405029-2.4643555-0.1220093-3.762207c0.085928-6.9543152,1.0097408-12.1546402,1.1162109-13.0517578
		c2.0376682-14.331604,9.6603546-18.3319855,21.5845947-21.4411621c0.2665405,0.1977539,0.5697632,0.3479004,0.9031982,0.416748
		c3.6382065,0.679718,7.160553,0.552887,10.6894531-0.7011719c0.3131409-0.1102448,0.142231-0.5835724-0.1669922-0.4707031
		c-3.265625,1.1591797-6.6772461,1.3828125-10.4257812,0.6806641c-1.5365753-0.3148117-2.0596085-2.2894669-0.6098633-3.2958984
		c0.2259827-0.1574097,0.3259926-0.2320328,0.4610596-0.4267578c0.7213211-0.0821381,0.4998016-0.0690002,9.446167-3.2705078
		c0.3087196-0.1114197,0.1457558-0.5795441-0.1689453-0.4707031c-8.6088791,3.0788116-8.5448685,3.0997086-9.1138916,3.2124023
		c-0.0301704-0.988327-1.2516289-0.4240952-2.0899658-1.2287598c-0.1793213-0.4003906-0.3068848-0.8439941-0.4046631-1.2668457
		c0.1279449-1.0293655,1.2329445-1.5975113,2.1143799-2.2236328c2.6147461-1.8623047,5.6904297-2.9775391,8.8969727-3.2255859
		C57.8563728,79.816925,59.7238541,79.5197525,60.9590034,80.3967743z M125.7674713,41.9436493
		c0.1322632,1.4440918,1.3327026,2.5795898,2.8113403,2.5795898c1.4786987,0,2.6791382-1.135498,2.8114014-2.5795898h3.5341187
		c3.6322327,0,6.7099609,2.8366013,6.7099609,6.4404297v8.5722656c-4.062027,1.4801521-8.5806885,0.8666878-12.862793,0.9179688
		c-4.1951752,0.0525551-40.5601883,0.0000572-40.6739502,0c-0.8970566-1.7983551-3.3342667-1.2170715-5.2221069-0.5795898
		c-0.4854736,0.1606445-0.9836426,0.347168-1.4799194,0.5795898H62.8789864
		c-0.1646767-1.8792038-0.7073784-4.2513885-1.5880127-6.3754883c-0.5263329-3.0811348-1.3675575-6.042038-2.8570557-9.3879395
		C136.0089111,41.7360611,51.5497627,42.0913391,125.7674713,41.9436493z M43.8845406,40.1438446
		c-0.0200195-0.0400391-0.0300293-0.0800781-0.0300293-0.1298828c0.1800537-2.75,1.2200317-5.4599609,2.9300537-7.6201172
		c0.2251053-0.2748909,0.5944328,0.060524,0.3899536,0.3100586c-1.6399536,2.0800781-2.6499634,4.6899414-2.8200073,7.3398438
		c0,0.0102539,0,0.0200195-0.0099487,0.0302734c0.4599609-0.0600586,0.9299927-0.1201172,1.3999634-0.1699219
		c3.7399902-0.3803711,7.6699829,1.1298828,10.5200195,4.0097656c2.3781433,2.4050407,4.6111984,7.4490128,5.4299927,10.6401367
		c-0.0182495-0.2060547-0.0567017-0.4094238-0.0783691-0.6149902c0.3967056,1.3938904,0.6799393,2.8285408,0.7827148,4.2746582
		H62.364521c0,0.1005669,0.0531998,0.3948021,0.078064,1.2368164c0.0076294,5.2573242-2.272522,11.072998-7.8634644,14.046875
		c-0.2911835,0.1537476-0.0597916,0.5962296,0.234375,0.4414062c0.3494873-0.1860352,0.6784668-0.3891602,1.0031738-0.5957031
		c0.0331116,0.1007919,1.9153214,5.258873,2.1694946,5.9472656c-0.2351761,0.0492325-4.8739662,0.1124496-9.5249634,3.4162598
		c-0.7534752-2.1100998-1.2187767-3.3343582-2.2502441-6.333252c-0.1094856-0.3165588-0.5796852-0.1473389-0.4726562,0.1621094
		c0.0110474,0.0322266,0.020813,0.0603027,0.0317383,0.092041c-0.0036621,0.0004883-0.0065308-0.0029297-0.0102539-0.0021973
		c-8.8828316,1.6722717-17.9306984-3.8688354-21.8032837-13.3549805c0.2078247,0.0222168,0.3811035-0.0783691,0.3980103-0.3662109
		c0.1500244-2.8701172,0.7300415-5.8203125,1.710022-8.6201172c-0.039032,0.039032-0.1306362,0.0144615-0.1799927-0.0102539
		c-1.2584362-0.6356201-2.4927788-1.5879326-3.539978-2.8100586c-0.2044544-0.2262154,0.1477547-0.5781631,0.3799438-0.3198242
		c1.5767784,1.8939819,3.4160404,2.6420174,3.4800415,2.7700195c1.5199585-4.2299805,3.9400024-8.1201172,7.1099854-10.9101562
		h0.0100098C36.2877426,41.9007034,38.961319,40.8534813,43.8845406,40.1438446z M32.074543,34.9636688
		c0.0988655-0.3212013,0.587204-0.1440811,0.4699707,0.1601562c-0.7999878,2.4501953-0.3499756,5.2602539,1.1799927,7.3398438
		c0.1810532,0.2496872-0.1873055,0.5678215-0.4099731,0.300293C31.6945381,40.5540009,31.2245064,37.5637665,32.074543,34.9636688z
		 M19.1767159,47.7424774c0.6657619,1.6315231,1.5541592,2.8776093,2.6144409,3.90625
		c-0.0004272,0.0029297-0.0003052,0.0061035-0.0007324,0.0090332c-0.9403629-0.8086395-2.0709877-1.6456795-3.2363892-2.0524902
		C18.7141304,48.9670868,18.9144478,48.3428192,19.1767159,47.7424774z M21.7528877,56.370163
		c0.3996792,2.6561775,0.7858334,4.7988586,1.8127441,7.2565918c-2.0298462-1.0424805-4.7431641-0.6166992-6.3434448,1.0151367
		c-0.2306538,0.2353134,0.1233921,0.5859604,0.3574219,0.3496094c1.4672852-1.4960938,3.9697266-1.8779297,5.8188477-0.8945312
		c0.1159058,0.0615234,0.2554932,0.0180664,0.324585-0.092041c1.2112427,2.7565918,2.9396973,5.2050781,4.713562,7.0964355
		c-1.901123,1.6247559-4.4035645,2.4060059-6.7471313,2.0756836c-3.6547852-0.515625-6.7832031-3.6523438-7.2773438-7.2958984
		C13.7850504,61.2574539,17.41045,56.5741386,21.7528877,56.370163z"/><path d="M21.5932808,66.837204c-0.5454102-0.8642578-0.6967773-1.9677734-0.4052734-2.9501953
		c0.0925694-0.3147392-0.3831749-0.4636345-0.4794922-0.1425781c-0.331543,1.1191406-0.1591797,2.375,0.4619141,3.3603516
		C21.3458691,67.383316,21.7701855,67.1183777,21.5932808,66.837204z"/><path d="M48.4511909,55.7532196c0.6341019,1.4185562,1.4031029,2.5247421,0.6181641,3.7373047
		c-0.5266571,0.8189201-1.1787415,1.0657349-1.9350586,1.7021484c-0.2523308,0.2149467,0.0686073,0.5941925,0.3222656,0.3828125
		c0.7342491-0.6212883,1.43964-0.891449,2.0332031-1.8144531c0.9397278-1.4509277,0.0849648-2.7165604-0.581543-4.2109375
		c-1.7318802-3.883316-1.4569511-3.4266357-3.1860352-7.3027344c-0.1347923-0.3021164-0.591732-0.0990715-0.4570312,0.203125
		C46.997036,52.3338013,46.7221069,51.877121,48.4511909,55.7532196z"/><path d="M41.4049873,53.7468719c0.5654907,1.7558594,1.7084961,2.9567871,2.5524292,2.6850586
		c0.8440552-0.2719727,1.0712891-1.9140625,0.5057983-3.6699219s-1.708374-2.9567871-2.5524292-2.6850586
		C41.0667915,50.3489227,40.8394966,51.9910126,41.4049873,53.7468719z"/><path d="M51.8413887,50.0608368c0.5701904,1.7705078,1.7226562,2.9814453,2.5737305,2.7072754
		c0.8510132-0.2741699,1.0802002-1.9299316,0.5099487-3.7004395c-0.5701904-1.7705078-1.7225952-2.9814453-2.5736694-2.7072754
		C51.5003853,46.6345673,51.2711983,48.290329,51.8413887,50.0608368z"/><path d="M37.9106636,49.0476532c0.2835083,0.0893555,0.6569824-0.3457031,0.9597778-0.3876953
		c0.4692993-0.0644531,0.9293213,0.1015625,1.4102173-0.0224609c1.0057259-0.2600441,1.2352333-1.2264328,0.7386475-1.6699219
		c-0.631958-0.5639648-1.6330566,0.15625-2.1938477,0.4853516c-0.1876831,0.1103516-0.3764038,0.2214355-0.5425415,0.3620605
		c-0.2487373,0.2105408-0.5860176,0.6538467-0.5656738,0.9553223
		C37.7253609,48.8899384,37.7964668,49.0115204,37.9106636,49.0476532z"/><path d="M50.3288765,46.2014618c0.4630127-0.1796875,0.739563-0.5830078,1.1584473-0.8044434
		c0.2702637-0.1428223,0.8273926-0.0075684,1.0054932-0.2453613c0.1031227-0.1379623,0.0723648-0.3793755-0.2770996-0.565918
		c-0.4910316-0.2619514-0.8992615-0.2409782-1.3963013-0.1950684c-0.647583,0.0598145-1.8807983,0.0593262-2.0646973,0.8859863
		C48.6063118,45.9439774,49.3693466,46.5742378,50.3288765,46.2014618z"/><path d="M43.0366402,68.1604462c-0.0985451-0.3107071-0.5764961-0.1676941-0.4775391,0.1503906
		c0.3384094,1.0766449,2.9047775,2.6397095,4.5356445,1.3818359c0.2622871-0.203743-0.0462074-0.5998459-0.3056641-0.3964844
		C45.456749,70.3254318,43.2672119,68.8982773,43.0366402,68.1604462z"/><circle cx="129.597" cy="49.596" r="2.837"/><path d="M127.560379,30.9380341c-1.5670776,0-2.8374023,1.2702637-2.8374023,2.8374023s1.2703247,2.8374023,2.8374023,2.8374023
		c1.5670166,0,2.8373413-1.2702637,2.8373413-2.8374023S129.1273956,30.9380341,127.560379,30.9380341z"/><path d="M90.5165558,102.3169403c5.0096893-0.0291595,5.010704,0.0733414,5.1818237-0.0922852
		c0.1590118-0.151123,0.1800156-0.6401367-0.2938232-0.6401367l-4.4958496-0.0012207l0.0015869-8.3061523
		c0.0007477-0.575592-0.7969131-0.5821991-0.7976685-0.0002441l-0.0015869,8.6130371
		C90.1102829,102.16642,90.2805939,102.3164673,90.5165558,102.3169403z"/><path d="M109.1249542,72.814743c-5.5562134-0.5952148-11.7001953-0.5263672-18.248291,0
		c-1.5440674,0-2.7957153,1.2514648-2.7957153,2.7958984v3.7978516c0,1.5439453,1.2516479,2.7954102,2.7957153,2.7954102h18.2483521
		c1.5440063,0,2.7956543-1.2514648,2.7956543-2.7954102v-3.7978516
		C111.9206696,74.0662079,110.6690216,72.814743,109.1249542,72.814743z M101.8872223,76.6868134
		c0.1153259,0.1105118,0.1223984,0.4638672-0.2053223,0.4638672l-3.244873-0.0009766l-0.0003052,2.7719727
		c3.5268631,0.0220108,3.5224075-0.050499,3.6445923,0.0654297c0.1158371,0.1096725,0.1238937,0.4621124-0.2047119,0.4638672
		l-3.6941528-0.0009766c-0.2073059-0.0009689-0.3325729-0.1193542-0.3328247-0.3491211l0.0014648-6.3310547
		c-0.0002441-0.2326736,0.1300507-0.3491211,0.333313-0.3491211l3.6940918,0.0009766
		c0.371109,0,0.3734207,0.5283203-0.0003662,0.5283203l-3.4401855-0.0009766l-0.0005493,2.6723633
		C101.7359924,76.6431503,101.7625504,76.5699387,101.8872223,76.6868134z"/><polygon points="126.701 74.331 124.965 78.495 128.466 78.496 126.722 74.331"/><path d="M118.1813507,72.814743c-1.5440063,0-2.7957153,1.2514648-2.7957153,2.7958984v3.7978516
		c0,1.5439453,1.251709,2.7954102,2.7957153,2.7954102h18.2483521c1.5440063,0,2.7956543-1.2514648,2.7956543-2.7954102v-3.7978516
		c0-1.5444336-1.2516479-2.7958984-2.7956543-2.7958984C130.8734283,72.2195282,124.7294464,72.2883759,118.1813507,72.814743z
		 M129.5977325,81.0666962c-0.1695557-0.1522598-0.1587524-0.2845306-0.8949585-2.0019531l-3.9849243-0.0014648
		c-0.7977676,1.8741455-0.7789001,2.0840836-1.1009521,2.0820312c-0.2925186,0-0.3606644-0.1993103-0.2523193-0.4614258
		c3.0893021-7.1700363,2.9329758-7.0293808,3.137085-7.1635742c0.207222-0.1363525,0.4776611-0.0825195,0.5994873,0.230957
		c3.1296234,7.3668671,3.0197144,7.0094223,3.0128174,7.1704102
		C130.098465,81.1897736,129.744751,81.1975098,129.5977325,81.0666962z"/><path d="M128.9973297,91.6262665c-0.0001221-1.2165298-0.7997589-1.7075195-2.0261841-1.7075195l-2.2429199-0.0004883
		l-0.0005493,3.4257812l2.2429199,0.0004883C128.1999054,93.3445282,128.9966736,92.8558655,128.9973297,91.6262665z"/><path d="M136.4297028,88.9475555c-5.5562744-0.5957031-11.7002563-0.5263672-18.2483521,0
		c-1.5440063,0-2.7957153,1.2514648-2.7957153,2.7954102v3.7978516c0,1.5439453,1.251709,2.7958984,2.7957153,2.7958984h18.2483521
		c1.5440063,0,2.7956543-1.2519531,2.7956543-2.7958984v-3.7978516
		C139.2253571,90.1990204,137.9737091,88.9475555,136.4297028,88.9475555z M129.2689362,97.2932587
		c-1.5135956-2.7238464-1.3634949-3.3452148-2.9129639-3.3452148l-1.6287231-0.0004883l-0.0009155,3.2402344
		c0.000946,0.4463425-0.4541245,0.4313354-0.6031494,0.2724609c-0.1710052-0.1864929-0.0596695,0.0215378-0.0890503-7.7861328
		c0.0002518-0.2489243,0.1429291-0.371582,0.3538818-0.371582l2.6744995,0.0009766
		c1.5765228,0,2.6408844,0.7306366,2.640625,2.3227539c-0.0007477,1.1808548-0.6243439,1.9969025-1.8942261,2.2226562
		c0.7198334,0.2662582,0.7452698,0.7315903,2.0859375,3.1889648
		C130.1908417,97.5109253,129.5502014,97.8148041,129.2689362,97.2932587z"/><path d="M136.4297028,105.0798798c-5.5562744-0.5952148-11.7002563-0.5258789-18.2483521,0
		c-1.5440063,0-2.7957153,1.2519531-2.7957153,2.7958984v3.7978516c0,1.5439453,1.251709,2.7958984,2.7957153,2.7958984h18.2483521
		c1.5440063,0,2.7956543-1.2519531,2.7956543-2.7958984v-3.7978516
		C139.2253571,106.3318329,137.9737091,105.0798798,136.4297028,105.0798798z M129.878067,113.4524384
		c-0.0912933,0.118988-0.2911072,0.1129761-0.3942871,0.0483398c-0.1699677-0.1055756,0.0322418,0.0774002-5.0621948-6.5620117
		l0.1531372,6.3862305c0.0118637,0.4487381-0.6057129,0.4954681-0.6184692,0.0151367
		c-0.1548386-7.5607605-0.2374878-7.3367767-0.1033936-7.5024414c0.0955811-0.1172638,0.3181458-0.1139832,0.4105225-0.0541992
		c0.1019211,0.0651398-0.0153656-0.0496292,5.0408936,6.5546875c-0.1321869-6.5924149-0.225708-6.4800873-0.0776978-6.6347656
		c0.1322784-0.1428986,0.5315247-0.1582108,0.5419312,0.2358398
		C129.9269867,113.5283051,130.0017548,113.2912292,129.878067,113.4524384z"/><path d="M22.0088081,27.6916962c1.1298828,0.8339844,2.2416992,1.7236328,3.3046875,2.6435547
		c0.2517338,0.2128067,0.5752048-0.1633053,0.3271484-0.3789062c-1.0722656-0.9277344-2.1943359-1.8251953-3.3349609-2.6669922
		C22.0413208,27.0928345,21.7415752,27.4947872,22.0088081,27.6916962z"/><path d="M27.7671089,27.2639618c-0.5664062-1.203125-1.1943359-2.3945312-1.8657227-3.5400391
		c-0.1684875-0.2858467-0.5984268-0.0326328-0.4316406,0.2519531c0.6645508,1.1337891,1.2851562,2.3115234,1.8452148,3.5009766
		C27.4544163,27.7750015,27.909544,27.5653114,27.7671089,27.2639618z"/><path d="M30.0888863,23.9944305c-0.144043,1.2949219,0.012207,2.6298828,0.4521484,3.8583984
		c0.1111336,0.3111763,0.5819054,0.1433983,0.4707031-0.1679688c-0.4140625-1.1582031-0.5615234-2.4150391-0.4257812-3.6357422
		C30.6212311,23.7305107,30.1253948,23.6512451,30.0888863,23.9944305z"/></svg>